<svg width="503" height="524" viewBox="0 0 503 524" fill="none" xmlns="http://www.w3.org/2000/svg">
<path d="M375.886 29.5826V99.4106H385.686V116.339L402.627 99.4106H495.577V29.5826H375.886Z" fill="#EBEBEB"/>
<path d="M458.356 64.4966C458.356 65.6182 458.688 66.7147 459.311 67.6473C459.935 68.58 460.82 69.3069 461.857 69.7361C462.893 70.1653 464.033 70.2777 465.133 70.0588C466.233 69.84 467.244 69.2999 468.037 68.5067C468.83 67.7136 469.37 66.7031 469.589 65.603C469.808 64.5029 469.696 63.3626 469.266 62.3263C468.837 61.29 468.11 60.4043 467.178 59.7811C466.245 59.1579 465.149 58.8253 464.027 58.8253C463.282 58.8253 462.545 58.972 461.857 59.257C461.169 59.542 460.543 59.9598 460.017 60.4864C459.49 61.013 459.072 61.6382 458.787 62.3263C458.502 63.0143 458.356 63.7518 458.356 64.4966Z" fill="white"/>
<path d="M430.06 64.4966C430.06 65.6182 430.393 66.7147 431.016 67.6473C431.639 68.58 432.525 69.3069 433.561 69.7361C434.597 70.1653 435.738 70.2777 436.838 70.0588C437.938 69.84 438.948 69.2999 439.741 68.5067C440.535 67.7136 441.075 66.7031 441.294 65.603C441.512 64.5029 441.4 63.3626 440.971 62.3263C440.542 61.29 439.815 60.4043 438.882 59.7811C437.949 59.1579 436.853 58.8253 435.731 58.8253C434.227 58.8253 432.785 59.4228 431.721 60.4864C430.657 61.55 430.06 62.9925 430.06 64.4966Z" fill="white"/>
<path d="M401.765 64.4966C401.765 65.6188 402.098 66.7157 402.721 67.6486C403.345 68.5815 404.231 69.3084 405.268 69.7373C406.305 70.1662 407.446 70.2778 408.547 70.0579C409.647 69.8381 410.658 69.2968 411.45 68.5024C412.243 67.7081 412.782 66.6964 413 65.5955C413.217 64.4946 413.103 63.3539 412.672 62.3178C412.241 61.2818 411.512 60.3969 410.578 59.7752C409.644 59.1535 408.546 58.8229 407.424 58.8253C405.922 58.8285 404.482 59.4275 403.421 60.4907C402.36 61.5539 401.765 62.9946 401.765 64.4966Z" fill="white"/>
<path d="M175.097 250.797V348.484H161.386V372.177L137.693 348.484H7.6555V250.797H175.097Z" fill="white"/>
<path d="M175.109 250.797C175.194 278.57 175.813 321.038 175.838 348.483V349.2H175.109L161.398 349.26L162.188 348.471L162.297 372.164V374.338L160.755 372.807L136.965 349.2C108.354 350.159 38.1613 349.333 6.46544 349.661V348.447L6.62331 250.76V249.716H7.65555C49.4066 249.91 133.37 250.372 175.097 250.748L175.109 250.797ZM175.109 250.797C133.382 251.173 49.3823 251.635 7.66769 251.829L8.69993 250.797L8.8578 348.483L7.6434 347.269C40.3107 347.269 105.463 347.366 138.118 347.426L138.41 347.73L162.018 371.508L160.476 372.152L160.585 348.459V347.657H161.374L175.085 347.718L174.356 348.447C174.538 321.183 174.854 278.327 175.085 250.76L175.109 250.797Z" fill="#EBEBEB"/>
<path d="M59.7412 299.701C59.7436 301.272 59.2799 302.809 58.4086 304.117C57.5374 305.424 56.2978 306.444 54.8468 307.047C53.3958 307.65 51.7985 307.809 50.2571 307.504C48.7156 307.199 47.2993 306.444 46.1874 305.333C45.0754 304.223 44.3178 302.808 44.0104 301.267C43.7029 299.726 43.8595 298.128 44.4603 296.677C45.061 295.225 46.079 293.983 47.3853 293.11C48.6917 292.237 50.2277 291.771 51.799 291.771C52.8414 291.769 53.8739 291.973 54.8375 292.371C55.801 292.769 56.6766 293.353 57.4143 294.089C58.1519 294.826 58.7371 295.701 59.1364 296.663C59.5357 297.626 59.7412 298.659 59.7412 299.701Z" fill="#EBEBEB"/>
<path d="M99.3184 299.701C99.3208 301.272 98.857 302.809 97.9858 304.117C97.1145 305.424 95.875 306.444 94.4239 307.047C92.9729 307.65 91.3756 307.809 89.8342 307.504C88.2928 307.199 86.8765 306.444 85.7645 305.333C84.6526 304.223 83.895 302.808 83.5875 301.267C83.2801 299.726 83.4367 298.128 84.0374 296.677C84.6382 295.225 85.6562 293.983 86.9625 293.11C88.2688 292.237 89.8049 291.771 91.3762 291.771C92.4186 291.769 93.4511 291.973 94.4146 292.371C95.3781 292.769 96.2538 293.353 96.9914 294.089C97.7291 294.826 98.3143 295.701 98.7136 296.663C99.1128 297.626 99.3184 298.659 99.3184 299.701Z" fill="#EBEBEB"/>
<path d="M138.908 299.701C138.91 301.272 138.446 302.809 137.575 304.117C136.704 305.424 135.464 306.444 134.013 307.047C132.562 307.65 130.965 307.809 129.424 307.504C127.882 307.199 126.466 306.444 125.354 305.333C124.242 304.223 123.484 302.808 123.177 301.267C122.869 299.726 123.026 298.128 123.627 296.677C124.228 295.225 125.246 293.983 126.552 293.11C127.858 292.237 129.394 291.771 130.966 291.771C132.008 291.769 133.04 291.973 134.004 292.371C134.968 292.769 135.843 293.353 136.581 294.089C137.318 294.826 137.904 295.701 138.303 296.663C138.702 297.626 138.908 298.659 138.908 299.701Z" fill="#EBEBEB"/>
<path d="M29.8061 66.0023L35.1252 73.9323L44.3182 76.5433L38.4162 84.0483L38.7684 93.5935L29.8061 90.3025L20.8439 93.5935L21.196 84.0483L15.3062 76.5433L24.4871 73.9323L29.8061 66.0023Z" fill="#EBEBEB"/>
<path d="M70.8408 66.0023L76.1599 73.9323L85.3407 76.5433L79.4509 84.0483L79.8031 93.5935L70.8408 90.3025L61.8664 93.5935L62.2307 84.0483L56.3287 76.5433L65.5217 73.9323L70.8408 66.0023Z" fill="#EBEBEB"/>
<path d="M111.863 66.0023L117.194 73.9323L126.375 76.5433L120.473 84.0483L120.838 93.5935L111.863 90.3025L102.901 93.5935L103.253 84.0483L97.3632 76.5433L106.544 73.9323L111.863 66.0023Z" fill="#EBEBEB"/>
<path d="M152.898 66.0023L158.217 73.9323L167.41 76.5433L161.508 84.0483L161.86 93.5935L152.898 90.3025L143.935 93.5935L144.288 84.0483L138.386 76.5433L147.579 73.9323L152.898 66.0023Z" fill="#EBEBEB"/>
<path d="M203.538 94.4678L193.932 90.946L184.326 94.4678L184.703 84.2426L178.388 76.2518L188.224 73.4587L193.932 64.9579L199.628 73.4587L209.476 76.2518L203.162 84.3033L203.538 94.4678ZM193.932 89.6102L202.251 92.6583L201.923 83.8054L207.4 76.8226L198.899 74.3938L193.956 67.0224L189.014 74.3938L180.513 76.8226L185.99 83.8054L185.662 92.6583L193.932 89.6102Z" fill="#EBEBEB"/>
<path d="M193.932 90.3025V66.0023L188.613 73.9323L179.42 76.5433L185.322 84.0483L184.958 93.5935L193.932 90.3025Z" fill="#EBEBEB"/>
<path fill-rule="evenodd" clip-rule="evenodd" d="M408.723 251.344C406.294 249.85 404.266 247.7 401.085 248.004C399.87 248.138 400.125 247.118 400.113 246.462L399.967 210.564C399.967 209.702 399.967 208.985 400.963 208.5C410.083 203.861 414.018 194.777 419.592 187.017C422.45 183.16 424.501 178.766 425.623 174.099C426.746 169.431 426.917 164.586 426.125 159.851C425.737 157.155 426.988 155.953 429.416 155.394C432.331 154.714 435.246 155.515 436.254 157.519C438.894 162.396 440.677 167.691 441.524 173.173C442.058 177.715 440.455 182.135 439.897 186.628C439.496 189.907 438.682 193.162 438.124 196.489C438.925 197.072 439.86 196.769 440.723 196.769C450.826 196.769 460.946 196.74 471.082 196.684C475.333 196.684 477.434 197.898 478.029 200.715C478.362 202.454 478.114 204.254 477.324 205.838C476.535 207.422 475.246 208.703 473.657 209.483C472.904 209.872 471.532 209.483 471.447 210.698C471.362 211.912 472.771 211.779 473.463 212.264C477.106 214.766 476.474 219.939 472.248 222.951C471.228 223.668 469.261 223.34 469.212 224.833C469.212 226.048 471.046 226.048 471.884 226.837C474.847 229.752 473.39 235.204 468.982 237.427C468.376 237.613 467.784 237.84 467.209 238.107C466.711 238.447 466.225 238.835 467.209 239.515C471.593 242.624 471.52 246.984 467.124 250.178L465.812 251.125C464.219 252.099 462.351 252.526 460.493 252.339C444.649 252.429 428.797 252.485 412.937 252.509C412.192 252.606 411.436 252.552 410.712 252.352C409.989 252.152 409.312 251.809 408.723 251.344Z" fill="#EBEBEB"/>
<path fill-rule="evenodd" clip-rule="evenodd" d="M363.584 230.383C363.584 222.793 363.584 215.179 363.475 207.589C363.475 206.035 363.62 205.282 365.515 205.294C374.793 205.379 384.046 205.294 393.325 205.209C395.146 205.209 395.425 205.816 395.425 207.431C395.425 222.724 395.478 238.018 395.583 253.311C395.583 255.266 395.073 255.813 393.154 255.74C384.156 255.667 375.169 255.679 366.183 255.849C363.948 255.849 363.632 255.108 363.645 253.153C363.705 245.6 363.608 237.998 363.584 230.383Z" fill="#EBEBEB"/>
<path fill-rule="evenodd" clip-rule="evenodd" d="M233.17 352.941C234.967 354.083 236.533 355.722 238.95 355.491C239.885 355.406 239.679 356.171 239.679 356.706C239.679 365.797 239.679 374.881 239.679 383.957C239.679 384.613 239.679 385.171 238.914 385.523C231.979 389.021 228.968 395.894 224.729 401.784C222.542 404.708 220.968 408.044 220.102 411.592C219.236 415.14 219.096 418.826 219.69 422.429C219.981 424.481 219.034 425.392 217.188 425.805C214.966 426.315 212.768 425.708 212.003 424.178C210.005 420.469 208.665 416.443 208.044 412.277C207.643 408.84 208.882 405.476 209.258 402.076C209.574 399.574 210.157 397.121 210.63 394.595C210.023 394.146 209.319 394.376 208.663 394.364H185.723C182.481 394.364 180.865 393.429 180.452 391.292C180.206 389.97 180.399 388.604 181.002 387.402C181.605 386.201 182.585 385.229 183.792 384.637C184.363 384.345 185.407 384.637 185.48 383.714C185.553 382.791 184.472 382.888 183.95 382.499C181.169 380.605 181.691 376.67 184.897 374.399C185.674 373.853 187.168 374.108 187.205 372.979C187.205 372.068 185.82 372.08 185.189 371.448C182.942 369.226 184.059 365.097 187.411 363.421C187.872 363.28 188.323 363.105 188.759 362.899C189.135 362.644 189.512 362.365 188.759 361.83C185.444 359.402 185.517 356.159 188.856 353.742L189.852 353.026C191.069 352.302 192.489 351.995 193.896 352.152C205.926 352.152 217.957 352.152 229.988 352.152C231.111 351.986 232.254 352.269 233.17 352.941Z" fill="#EBEBEB"/>
<path fill-rule="evenodd" clip-rule="evenodd" d="M267.403 368.922C267.403 374.69 267.403 380.471 267.403 386.239C267.403 387.454 267.294 387.988 265.861 387.964C258.818 387.883 251.778 387.883 244.743 387.964C243.37 387.964 243.152 387.502 243.164 386.276C243.164 374.666 243.164 363.057 243.164 351.447C243.164 349.965 243.565 349.54 245.046 349.577C251.871 349.65 258.696 349.662 265.521 349.577C267.221 349.577 267.452 350.147 267.428 351.641C267.318 357.422 267.403 363.19 267.403 368.922Z" fill="#EBEBEB"/>
<path d="M0.963989 503.721C161.544 502.968 341.688 502.968 502.268 503.721C341.688 504.461 161.544 504.461 0.963989 503.721Z" fill="#263238"/>
<path d="M332.046 69.8401L338.215 78.7295L348.586 81.8505L342.016 90.4606L342.259 101.281L332.046 97.6984L321.833 101.281L322.076 90.4606L315.518 81.8505L325.889 78.7295L332.046 69.8401Z" fill="#CEC7FE"/>
<path d="M119.429 221.336L125.586 230.237L135.957 233.346L129.399 241.956L129.642 252.777L119.429 249.206L109.203 252.777L109.459 241.956L102.889 233.346L113.26 230.237L119.429 221.336Z" fill="#CEC7FE"/>
<path d="M194.479 319.205L197.563 323.65L202.749 325.204L199.47 329.515L199.591 334.919L194.479 333.134L189.366 334.919L189.487 329.515L186.221 325.204L191.394 323.65L194.479 319.205Z" fill="#CEC7FE"/>
<path d="M392.074 208.888L395.158 213.345L400.331 214.9L397.053 219.199L397.186 224.615L392.074 222.83L386.961 224.615L387.082 219.199L383.803 214.9L388.989 213.345L392.074 208.888Z" fill="#CEC7FE"/>
<path d="M296.525 51.296L299.609 55.7407L304.795 57.2952L301.516 61.6063L301.637 67.0225L296.525 65.2252L291.424 67.0225L291.546 61.6063L288.267 57.2952L293.452 55.7407L296.525 51.296Z" fill="#CEC7FE"/>
<path d="M206.513 503.149C209.489 504.218 297.399 505.954 300.714 503.938C301.091 503.732 302.524 474.647 302.524 474.647C302.427 474.234 303.896 471.429 306.167 467.531C312.433 456.601 324.687 437.001 324.687 437.001L272.467 421.213L251.033 464.142L245.568 475.072C245.568 475.072 233.582 479.747 223.126 484.423C216.69 487.289 211.079 489.924 209.768 490.896C206.404 493.555 203.55 502.092 206.513 503.149Z" fill="#FFC4C0"/>
<path d="M206.513 503.149C209.489 504.218 297.399 505.954 300.714 503.938C301.091 503.732 302.524 474.647 302.524 474.647C302.426 474.234 303.896 471.429 306.167 467.531L251.082 464.155L245.617 475.084C245.617 475.084 233.631 479.76 223.175 484.435C216.738 487.301 211.128 489.936 209.816 490.908C206.404 493.555 203.55 502.093 206.513 503.149Z" fill="white"/>
<path d="M206.149 503.477C209.209 504.558 297.229 506.064 300.629 503.999C301.916 503.222 303.471 489.669 302.524 474.647L245.775 473.736C245.775 473.736 212.901 488.309 209.428 490.932C205.955 493.555 203.04 502.396 206.149 503.477Z" fill="#FEF250"/>
<path opacity="0.1" d="M300.629 503.999C299.415 504.752 286.882 505.031 271.338 505.031L301.139 474.671H302.512C303.471 489.669 301.916 503.222 300.629 503.999Z" fill="black"/>
<path d="M207.473 499.968C222.24 499.858 281.782 500.818 296.391 501.826C296.5 501.826 296.5 501.923 296.391 501.923C281.757 502.348 222.215 500.915 207.473 500.211C207.157 500.198 207.157 499.98 207.473 499.968Z" fill="#263238"/>
<path d="M215.184 487.86C216.826 487.844 218.453 488.169 219.962 488.815C221.471 489.461 222.83 490.414 223.952 491.612C225.989 493.755 227.124 496.598 227.122 499.554C227.122 499.639 226.952 499.639 226.939 499.554C226.485 496.625 225.094 493.921 222.975 491.848C220.856 489.775 218.123 488.444 215.184 488.054C215.158 488.054 215.134 488.044 215.115 488.026C215.097 488.007 215.087 487.983 215.087 487.957C215.087 487.931 215.097 487.906 215.115 487.888C215.134 487.87 215.158 487.86 215.184 487.86Z" fill="#263238"/>
<path d="M241.111 475.146C247.026 475.146 253.838 477.356 257.421 482.25C257.567 482.444 257.287 482.638 257.117 482.541C251.998 479.748 246.596 477.509 241.002 475.862C240.915 475.839 240.839 475.785 240.79 475.71C240.74 475.635 240.72 475.544 240.734 475.455C240.747 475.365 240.793 475.285 240.863 475.227C240.933 475.17 241.021 475.141 241.111 475.146Z" fill="#263238"/>
<path d="M236.521 476.834C242.435 476.834 249.248 479.056 252.83 483.95C252.976 484.144 252.697 484.339 252.527 484.241C247.408 481.448 242.006 479.209 236.412 477.562C236.331 477.532 236.263 477.475 236.219 477.401C236.175 477.326 236.158 477.239 236.171 477.154C236.184 477.068 236.225 476.99 236.289 476.931C236.353 476.873 236.435 476.839 236.521 476.834Z" fill="#263238"/>
<path d="M231.943 478.533C237.845 478.533 244.658 480.756 248.24 485.65C248.386 485.844 248.107 486.038 247.936 485.941C242.818 483.148 237.415 480.909 231.821 479.262C231.74 479.231 231.671 479.173 231.628 479.098C231.584 479.022 231.568 478.934 231.583 478.848C231.597 478.762 231.641 478.683 231.706 478.626C231.772 478.569 231.856 478.536 231.943 478.533Z" fill="#263238"/>
<path d="M227.328 480.234C233.23 480.234 240.043 482.456 243.625 487.35C243.771 487.545 243.492 487.739 243.322 487.642C238.203 484.849 232.8 482.61 227.207 480.963C227.125 480.932 227.057 480.874 227.013 480.798C226.969 480.723 226.953 480.634 226.968 480.548C226.982 480.462 227.026 480.384 227.092 480.327C227.157 480.269 227.241 480.237 227.328 480.234Z" fill="#263238"/>
<path d="M292.906 487.751C299.536 487.884 299.33 498.182 292.699 498.049C286.069 497.915 286.226 487.617 292.906 487.751Z" fill="#263238"/>
<path d="M235.331 467.932C238.44 472.097 243.261 474.769 247.414 477.756C247.512 477.812 247.622 477.845 247.735 477.851C247.847 477.857 247.96 477.837 248.064 477.792C248.167 477.747 248.259 477.679 248.332 477.593C248.405 477.507 248.456 477.405 248.483 477.295C248.507 477.302 248.532 477.302 248.557 477.296C248.581 477.29 248.604 477.278 248.622 477.261C248.64 477.244 248.654 477.223 248.661 477.199C248.669 477.175 248.67 477.149 248.665 477.125C248.325 471.701 246.566 466.463 243.565 461.933C241.767 459.334 238.039 456.844 235.003 459.273C231.967 461.702 233.509 465.503 235.331 467.932ZM235.137 463.074C235.841 456.662 241.549 461.69 242.8 463.669C243.587 464.96 244.284 466.303 244.888 467.689C246.188 470.543 247.062 473.53 248.07 476.493C246.115 474.903 244.038 473.494 241.998 471.988C239.642 470.142 234.748 466.572 235.137 463.038V463.074Z" fill="#263238"/>
<path d="M269.711 473.724C269.31 469.863 264.926 468.952 261.805 469.498C256.466 470.53 251.494 472.951 247.39 476.518C247.37 476.531 247.353 476.549 247.342 476.57C247.331 476.591 247.325 476.615 247.325 476.639C247.325 476.663 247.331 476.687 247.342 476.708C247.353 476.729 247.37 476.747 247.39 476.76C247.329 476.857 247.291 476.966 247.28 477.08C247.269 477.193 247.285 477.308 247.327 477.414C247.368 477.521 247.434 477.616 247.518 477.692C247.603 477.768 247.705 477.824 247.815 477.853C252.855 478.716 258.137 480.282 263.286 479.566C266.31 479.165 270.087 477.38 269.711 473.724ZM255.745 477.61C253.255 477.234 250.79 476.748 248.289 476.469C251.106 475.109 253.851 473.639 256.789 472.559C258.205 472.022 259.653 471.576 261.125 471.223C263.408 470.737 270.998 471.223 266.917 476.275C264.671 479.031 258.708 478.048 255.745 477.61Z" fill="#263238"/>
<path d="M310.126 467.288L251.616 458.459C251.616 458.459 279.766 402.354 297.18 371.909C306.895 354.98 333.382 354.154 346.266 374.435C363.486 401.528 376.857 426.921 384.508 440.996L397.793 442.138L394.915 463.839L350.772 473.724C333.855 475.74 321.99 445.635 321.711 446.145C319.537 450.104 310.126 467.288 310.126 467.288Z" fill="#37474F"/>
<path d="M321.371 446.279C323.035 442.866 324.334 439.248 325.816 435.762C327.297 432.277 328.682 428.998 330.103 425.61C332.981 418.773 335.956 411.96 338.737 405.086C340.304 401.225 341.737 397.314 343.206 393.416C343.206 393.331 343.376 393.416 343.352 393.416C342.222 397.059 341.044 400.775 339.806 404.431C340.134 403.799 340.461 403.216 340.802 402.548C341.749 400.872 342.72 399.209 343.692 397.545C343.692 397.484 343.825 397.545 343.789 397.606C342.89 399.282 341.992 400.945 341.057 402.597C340.595 403.411 340.085 404.224 339.599 405.026C336.187 415.274 332.131 425.296 327.455 435.034C325.585 438.859 323.411 442.514 321.541 446.327C321.48 446.51 321.31 446.4 321.371 446.279Z" fill="#263238"/>
<path d="M345.125 397.654C350.164 406.665 355.326 415.615 360.39 424.614C362.952 429.156 365.514 433.71 368.04 438.264C369.255 440.413 370.396 442.587 371.684 444.712C372.744 446.714 374.348 448.377 376.31 449.509C378.638 450.628 381.081 451.487 383.597 452.071C386.451 452.909 389.28 453.808 392.098 454.585C392.219 454.585 392.158 454.828 392.037 454.792C389.475 454.112 386.9 453.577 384.338 452.885C381.977 452.386 379.646 451.758 377.355 451.003C375.33 450.321 373.537 449.084 372.182 447.432C370.797 445.515 369.578 443.484 368.538 441.36C363.478 432.099 358.463 422.817 353.492 413.514C350.662 408.232 347.857 402.925 344.991 397.654C345.125 397.642 345.125 397.618 345.125 397.654Z" fill="#263238"/>
<path d="M311.45 459.116C307.94 458.484 304.345 458.168 300.811 457.719L290.173 456.359C283.093 455.424 259.012 451.598 257.19 450.991C257.069 450.991 257.117 450.76 257.19 450.76C258.915 450.76 274.69 452.813 278.224 453.323C285.304 454.367 292.335 455.63 299.378 456.808C301.394 457.148 303.398 457.537 305.45 457.889C307.503 458.241 309.47 458.678 311.522 458.946C311.607 458.946 311.571 459.14 311.45 459.116Z" fill="#263238"/>
<path d="M272.334 516.386C273.451 513.435 329.508 445.696 333.187 444.506C333.612 444.348 356.577 462.248 356.577 462.248C357.499 463.596 402.954 456.03 402.954 456.03L400.987 510.387L319.015 505.08C319.015 505.08 307.648 511.152 297.277 516.01C290.902 519.021 285.255 521.559 283.664 521.899C279.547 522.75 271.192 519.325 272.334 516.386Z" fill="#FFC4C0"/>
<path d="M283.676 521.936C285.267 521.596 290.963 519.07 297.29 516.046C307.648 511.189 319.015 505.117 319.015 505.117L337.231 506.331L367.822 461.398C361.507 462.236 356.795 462.698 356.492 462.26C356.492 462.26 333.539 444.372 333.114 444.53C329.471 445.745 273.378 513.46 272.261 516.411C271.144 519.362 279.547 522.75 283.676 521.936Z" fill="white"/>
<path d="M271.836 516.459C273.05 513.435 329.313 445.757 333.09 444.53C334.523 444.057 345.805 451.72 356.577 462.249L320.23 505.845C320.23 505.845 287.769 521.268 283.482 522.167C279.195 523.066 270.67 519.507 271.836 516.459Z" fill="#FEF250"/>
<path d="M275.358 517.746C285.073 506.635 323.205 460.876 331.973 449.157C332.034 449.06 331.973 449.011 331.9 449.096C322.027 459.905 284.259 505.955 275.175 517.589C274.981 517.831 275.151 517.977 275.358 517.746Z" fill="#263238"/>
<path d="M289.542 519.836C290.623 518.6 291.437 517.154 291.932 515.589C292.427 514.023 292.594 512.373 292.42 510.74C292.123 507.803 290.705 505.093 288.461 503.174C288.461 503.113 288.291 503.235 288.352 503.308C290.279 505.56 291.423 508.378 291.612 511.337C291.8 514.296 291.022 517.236 289.396 519.714C289.386 519.734 289.383 519.756 289.387 519.778C289.392 519.8 289.403 519.819 289.42 519.834C289.437 519.848 289.458 519.856 289.481 519.856C289.503 519.856 289.524 519.849 289.542 519.836Z" fill="#263238"/>
<path d="M316.125 508.456C319.975 503.963 322.743 497.369 321.383 491.455C321.323 491.224 320.995 491.309 320.958 491.455C319.74 497.16 317.912 502.717 315.506 508.031C315.449 508.113 315.428 508.214 315.446 508.312C315.464 508.41 315.521 508.497 315.603 508.553C315.685 508.61 315.786 508.631 315.884 508.613C315.982 508.595 316.069 508.538 316.125 508.456Z" fill="#263238"/>
<path d="M311.85 510.824C315.688 506.331 318.457 499.737 317.096 493.823C317.096 493.592 316.72 493.677 316.671 493.823C315.452 499.523 313.624 505.077 311.219 510.387C311.161 510.471 311.138 510.574 311.157 510.674C311.175 510.775 311.232 510.863 311.316 510.921C311.4 510.979 311.503 511.002 311.603 510.983C311.703 510.965 311.792 510.908 311.85 510.824Z" fill="#263238"/>
<path d="M307.563 513.192C311.401 508.699 314.182 502.105 312.81 496.191C312.81 495.96 312.433 496.045 312.397 496.191C311.172 501.89 309.344 507.443 306.944 512.755C306.915 512.796 306.895 512.842 306.884 512.89C306.873 512.939 306.872 512.989 306.88 513.038C306.889 513.087 306.907 513.134 306.933 513.176C306.96 513.218 306.994 513.255 307.035 513.283C307.076 513.312 307.122 513.333 307.17 513.344C307.219 513.354 307.269 513.356 307.318 513.347C307.367 513.339 307.414 513.321 307.456 513.294C307.498 513.268 307.535 513.233 307.563 513.192Z" fill="#263238"/>
<path d="M303.277 515.56C307.126 511.067 309.895 504.473 308.535 498.559C308.474 498.328 308.146 498.413 308.11 498.559C306.882 504.277 305.042 509.847 302.621 515.172C302.569 515.259 302.554 515.363 302.58 515.46C302.605 515.558 302.667 515.642 302.754 515.694C302.841 515.745 302.945 515.76 303.043 515.735C303.141 515.71 303.225 515.647 303.277 515.56Z" fill="#263238"/>
<path d="M340.34 461.01C344.566 455.897 336.636 449.327 332.398 454.44C328.16 459.553 336.114 466.074 340.34 461.01Z" fill="#263238"/>
<path d="M324.164 523.442C327.99 522.726 328.524 518.281 327.735 515.221C326.262 509.988 323.44 505.235 319.55 501.437C319.534 501.419 319.514 501.405 319.492 501.395C319.47 501.385 319.446 501.38 319.422 501.38C319.398 501.38 319.374 501.385 319.352 501.395C319.33 501.405 319.311 501.419 319.295 501.437C319.193 501.387 319.082 501.36 318.968 501.36C318.855 501.36 318.743 501.386 318.642 501.437C318.54 501.488 318.452 501.561 318.384 501.652C318.316 501.743 318.27 501.848 318.25 501.96C317.801 507.048 316.684 512.44 317.813 517.516C318.469 520.504 320.558 524.11 324.164 523.442ZM319.149 509.793C319.307 507.279 319.598 504.789 319.659 502.275C321.332 504.915 322.868 507.639 324.262 510.436C324.92 511.796 325.484 513.2 325.95 514.638C326.63 516.872 326.715 524.487 321.396 520.831C318.469 518.864 318.955 512.829 319.149 509.793Z" fill="#263238"/>
<path d="M327.249 488.747C323.351 492.196 321.08 497.248 318.457 501.595C318.405 501.697 318.379 501.81 318.38 501.925C318.381 502.039 318.41 502.151 318.463 502.252C318.517 502.353 318.594 502.44 318.688 502.505C318.782 502.571 318.89 502.612 319.003 502.627C319.003 502.725 319.064 502.822 319.185 502.797C324.566 502.009 329.643 499.814 333.904 496.434C336.333 494.43 338.531 490.508 335.859 487.69C333.187 484.873 329.52 486.719 327.249 488.747ZM332.106 488.152C338.555 488.322 334.001 494.43 332.106 495.839C330.886 496.738 329.603 497.549 328.269 498.268C325.503 499.705 322.665 501.002 319.768 502.154C321.189 500.077 322.416 497.903 323.763 495.778C325.403 493.228 328.56 488.067 332.119 488.152H332.106Z" fill="#263238"/>
<path d="M388.673 439.126C388.673 439.126 446.831 432.86 469.844 439.066C501.94 447.7 505.608 486.257 480.895 500.927C449.563 519.507 340.959 509.161 340.959 509.161L371.319 458.047C371.319 458.047 416.823 449.546 457.615 452.861L375.315 463.038L388.673 439.126Z" fill="#37474F"/>
<path d="M369.182 461.483C369.214 461.396 369.238 461.307 369.255 461.216C369.268 461.137 369.288 461.06 369.316 460.985L369.461 460.463C369.573 460.105 369.702 459.752 369.85 459.407C369.996 459.054 370.141 458.727 370.311 458.386C370.48 458.055 370.675 457.739 370.894 457.439H370.979H371.052H371.137C376.128 456.638 409.998 452.8 415.062 452.387C420.126 451.974 425.214 451.671 430.303 451.428C440.441 450.9 450.601 450.936 460.736 451.537C461.683 451.537 462.63 451.683 463.577 451.756C463.784 451.756 464.002 451.671 464.209 451.622C464.707 451.513 465.192 451.404 465.69 451.319C466.613 451.161 467.536 451.052 468.459 450.942C470.39 450.699 472.333 450.566 474.252 450.25C474.373 450.25 474.41 450.432 474.252 450.456C472.309 450.833 470.402 451.367 468.459 451.744L466.783 452.059C470.487 452.436 474.191 452.91 477.883 453.444C477.992 453.444 477.992 453.662 477.883 453.65C472.855 453.104 467.767 452.837 462.715 452.715C457.663 452.594 452.672 452.497 447.644 452.594C437.48 452.788 427.303 453.347 417.163 454.075C411.467 454.476 376.906 458.508 371.198 458.52H371.125C371.081 458.666 371.024 458.809 370.955 458.945C370.785 459.285 370.615 459.613 370.433 459.941C370.251 460.269 370.081 460.56 369.874 460.852L369.583 461.301L369.425 461.52C369.365 461.592 369.313 461.669 369.267 461.75C369.291 461.714 369.109 461.617 369.182 461.483Z" fill="#263238"/>
<path d="M356.54 505.966C358.337 503.028 359.892 499.894 361.543 496.834C363.195 493.774 364.859 490.762 366.522 487.702C369.85 481.63 381.715 461.216 382.856 459.771C382.929 459.686 383.063 459.771 383.026 459.904C382.443 461.495 374.999 475.024 373.311 478.035C369.886 484.107 366.316 489.961 362.794 495.899C361.786 497.599 360.754 499.275 359.734 500.963C358.714 502.651 357.633 504.303 356.686 506.039C356.625 506.149 356.479 506.076 356.54 505.966Z" fill="#263238"/>
<path d="M384.702 465.406C387.726 464.75 390.774 464.373 393.859 463.876C396.943 463.378 399.931 462.88 403.027 462.394C409.132 461.406 415.252 460.483 421.389 459.625C433.606 457.913 445.859 456.577 458.161 455.812C465.095 455.387 472.042 455.205 478.988 454.95C479.134 454.95 479.122 455.193 478.988 455.205C466.601 455.466 454.237 456.39 441.949 457.974C429.805 459.358 417.661 460.916 405.517 462.649L395.231 464.131C391.758 464.641 388.272 465.345 384.775 465.636C384.745 465.643 384.714 465.638 384.688 465.623C384.662 465.608 384.642 465.583 384.633 465.554C384.624 465.525 384.626 465.494 384.639 465.467C384.651 465.439 384.674 465.417 384.702 465.406Z" fill="#263238"/>
<path d="M411.589 356.778C413.799 362.437 416.956 367.586 418.729 373.452C420.456 378.839 420.962 384.543 420.211 390.15C417.066 410.673 390.337 422.938 371.562 416.623C362.588 413.563 354.767 406.277 352.387 396.938C349.472 385.486 355.581 374.484 359.297 364.028C361.347 358.176 362.366 352.012 362.308 345.812C362.308 340.384 361.981 334.882 363.074 329.49C363.863 325.665 366.474 314.541 380.561 310.06C390.677 306.878 400.926 312.404 405.638 322.01C411.115 333.206 407.205 345.557 411.589 356.778Z" fill="#263238"/>
<path d="M363.341 358.454C358.969 367.817 353.225 377.374 351.537 387.709C350.152 396.282 352.46 405.548 359.916 410.636C359.916 410.636 360.05 410.636 359.989 410.539C352.156 404.467 351.185 393.987 353.383 384.964C355.629 375.722 361.046 367.683 363.778 358.636C363.787 358.582 363.778 358.526 363.752 358.478C363.725 358.429 363.683 358.392 363.632 358.37C363.581 358.349 363.525 358.346 363.472 358.361C363.419 358.376 363.373 358.409 363.341 358.454Z" fill="#263238"/>
<path d="M361.41 357.907C358.095 370.136 347.991 379.851 347.347 392.931C347.347 393.076 347.578 393.125 347.59 392.931C348.44 379.876 359.734 370.61 361.653 357.907C361.677 357.786 361.446 357.762 361.41 357.907Z" fill="#263238"/>
<path d="M412.293 356.571C410.181 352.044 408.882 347.181 408.456 342.204C408.443 342.151 408.413 342.103 408.37 342.068C408.327 342.034 408.274 342.015 408.219 342.015C408.164 342.015 408.11 342.034 408.067 342.068C408.024 342.103 407.994 342.151 407.982 342.204C406.768 360.226 427.412 373.779 421.96 392.395C421.96 392.517 422.118 392.614 422.154 392.48C424.802 384.781 422.749 377.094 419.3 370.002C417.09 365.411 414.418 361.137 412.293 356.571Z" fill="#263238"/>
<path d="M408.116 339.46C408.116 339.12 407.569 339.217 407.593 339.545C408.083 346.296 410.263 352.815 413.933 358.502C415.73 361.307 417.928 363.821 419.665 366.663C421.571 369.784 423.029 373.136 424.632 376.378C424.64 376.396 424.654 376.409 424.673 376.416C424.691 376.423 424.711 376.422 424.729 376.414C424.746 376.406 424.76 376.392 424.767 376.373C424.774 376.355 424.773 376.335 424.765 376.317C422.688 370.112 419.422 365.169 415.694 359.886C411.513 353.811 408.909 346.792 408.116 339.46Z" fill="#263238"/>
<path d="M368.198 372.674C340.717 391.158 318.408 408.815 316.064 421.141C312.761 438.203 323.096 443.486 327.832 443.753C340.717 444.506 370.166 400.934 379.274 381.382C388.127 362.388 374.27 368.606 368.198 372.674Z" fill="#FEF250"/>
<path opacity="0.1" d="M379.274 381.381C370.154 400.933 340.717 444.53 327.832 443.753C324.541 443.571 318.566 440.972 316.307 433.698L381.788 370.015C382.613 371.824 382.103 375.322 379.274 381.381Z" fill="black"/>
<path d="M431.663 439.053C431.663 439.053 398.874 443.352 382.978 443.182C368.721 443.036 354.731 436.102 354.731 436.102L361.203 412.324C361.203 412.324 354.755 404.103 359.746 395.189C363.304 388.85 374.453 375.273 380.391 368.922C393.749 354.579 404.97 362.716 408.322 367.27C420.806 384.709 431.663 439.053 431.663 439.053Z" fill="#FEF250"/>
<path d="M381.144 410.454C378.12 410.358 375.094 410.516 372.097 410.928C370.603 411.159 369.133 411.462 367.652 411.802C366.911 411.972 366.17 412.106 365.43 412.252C364.664 412.415 363.88 412.476 363.098 412.434C363.082 412.434 363.066 412.44 363.055 412.451C363.044 412.463 363.037 412.478 363.037 412.494C363.037 412.511 363.044 412.526 363.055 412.537C363.066 412.549 363.082 412.555 363.098 412.555C363.819 412.691 364.55 412.772 365.284 412.798C366.004 412.796 366.722 412.739 367.433 412.628C368.951 412.409 370.457 412.118 371.975 411.887C375.035 411.426 378.047 410.952 381.156 410.734C381.29 410.721 381.29 410.454 381.144 410.454Z" fill="#263238"/>
<path d="M388.09 414.413C385.692 413.804 383.259 413.346 380.804 413.041C379.59 412.895 378.375 412.822 377.1 412.798H375.315C374.659 412.798 374.003 412.919 373.348 412.919C373.331 412.919 373.316 412.926 373.305 412.937C373.293 412.949 373.287 412.964 373.287 412.98C373.287 412.996 373.293 413.012 373.305 413.023C373.316 413.034 373.331 413.041 373.348 413.041C373.955 413.041 374.562 413.199 375.181 413.259L377.027 413.454L380.67 413.842C383.099 414.073 385.589 414.328 388.054 414.656C388.2 414.668 388.212 414.45 388.09 414.413Z" fill="#263238"/>
<path d="M410.702 371.691C432.987 391.012 448.883 417.996 448.203 435.581C447.523 452.947 441.56 450.967 439.848 450.773C429.392 449.558 407.059 400.06 400.489 380.01C393.919 359.96 405.153 366.919 410.702 371.691Z" fill="#FEF250"/>
<path d="M426.49 436.54C425.384 434.293 424.243 432.071 423.162 429.8L419.871 423.06C417.709 418.554 415.499 414.073 413.398 409.531C411.297 404.989 409.148 400.496 407.059 395.942C406.015 393.659 404.995 391.376 404.023 389.081C403.052 386.786 402.08 384.478 401.133 382.147C402.563 386.955 404.253 391.682 406.197 396.306C408.104 400.945 410.192 405.499 412.269 410.053C414.346 414.607 416.653 419.052 419.009 423.485C421.365 427.917 423.842 432.301 426.49 436.54Z" fill="#263238"/>
<path d="M403.331 388.085C402.936 387.282 402.494 386.504 402.007 385.753C401.764 385.389 401.534 385.012 401.279 384.648C401.024 384.284 400.781 383.907 400.477 383.555C400.642 384.458 400.989 385.317 401.497 386.081C401.979 386.857 402.601 387.536 403.331 388.085Z" fill="#263238"/>
<path d="M383.123 379.11C383.123 379.11 398.121 367.136 405.966 367.415L412.609 373.341C412.609 373.341 414.795 374.07 415.463 372.686C417.151 369.261 417.503 360.979 410.387 355.587C403.865 350.644 390.47 351.628 381.557 353.96C372.995 356.194 368.259 361.246 370.882 366.808C373.505 372.37 383.123 379.11 383.123 379.11Z" fill="#FEF250"/>
<path opacity="0.1" d="M382.273 376.487C382.273 376.487 375.327 369.298 374.331 365.133C373.335 360.967 381.617 357.021 387.034 355.478C395.352 353.049 401.011 353.632 405.663 358.077C410.314 362.522 382.273 376.487 382.273 376.487Z" fill="black"/>
<path d="M394.369 364.137C394.235 365.594 387.993 372.953 381.508 373.536C379.395 373.718 378.642 364.938 378.642 364.938L378.339 364.112L374.064 352.612L386.779 341.767L388.637 340.31C388.637 340.31 389.596 343.54 390.75 347.597C390.811 347.779 390.859 347.973 390.92 348.167C390.981 348.362 391.066 348.605 391.114 348.823C391.296 349.418 391.478 350.038 391.648 350.645C391.818 351.252 391.903 351.568 392.025 352.066L392.414 353.535C393.305 357.02 393.958 360.563 394.369 364.137Z" fill="#FFC4C0"/>
<path d="M390.75 347.56C390.004 351.048 388.508 354.331 386.364 357.181C384.221 360.031 381.482 362.38 378.339 364.064L374.064 352.563L386.779 341.719L388.637 340.262C388.637 340.262 389.596 343.54 390.75 347.56Z" fill="#263238"/>
<path d="M360.912 327.863C352.533 347.706 363.474 354.968 367.749 356.766C371.635 358.405 385.066 363.481 395.462 344.622C405.857 325.762 399.275 315.586 390.604 311.372C381.933 307.158 369.413 308.032 360.912 327.863Z" fill="#FFC4C0"/>
<path d="M365.77 326.66C366.25 326.778 366.737 326.871 367.227 326.94C367.731 327.11 368.277 327.11 368.781 326.94C368.927 326.855 369.04 326.724 369.104 326.568C369.167 326.412 369.178 326.24 369.134 326.077C368.997 325.767 368.779 325.498 368.504 325.3C368.228 325.101 367.905 324.98 367.567 324.948C366.896 324.776 366.185 324.863 365.575 325.191C365.443 325.274 365.336 325.393 365.27 325.534C365.203 325.676 365.178 325.833 365.199 325.988C365.219 326.143 365.284 326.289 365.385 326.408C365.487 326.528 365.62 326.615 365.77 326.66Z" fill="#263238"/>
<path d="M379.808 331.409C379.387 331.155 378.981 330.875 378.594 330.571C378.12 330.243 377.719 330.037 377.501 329.478C377.46 329.316 377.473 329.145 377.536 328.99C377.599 328.835 377.71 328.704 377.853 328.616C378.169 328.491 378.512 328.453 378.848 328.507C379.183 328.56 379.498 328.703 379.759 328.92C380.346 329.277 380.779 329.84 380.974 330.498C381.01 330.65 381.002 330.809 380.95 330.956C380.899 331.103 380.806 331.232 380.683 331.328C380.56 331.424 380.413 331.482 380.258 331.497C380.102 331.511 379.946 331.481 379.808 331.409Z" fill="#263238"/>
<path d="M375.291 334.032C375.291 334.032 375.376 334.141 375.351 334.202C374.72 335.526 374.21 337.141 375.23 338.124C375.23 338.124 375.23 338.222 375.23 338.197C373.797 337.347 374.489 335.186 375.291 334.032Z" fill="#263238"/>
<path d="M377.112 333.158C379.347 333.947 377.61 338.343 375.545 337.627C373.481 336.91 375.242 332.49 377.112 333.158Z" fill="#263238"/>
<path d="M377.914 333.704C378.193 334.105 378.399 334.7 378.849 334.918C379.298 335.137 379.942 334.918 380.476 334.578C380.476 334.578 380.549 334.578 380.476 334.663C380.16 335.513 379.492 336.254 378.545 336.023C378.137 335.862 377.804 335.556 377.609 335.164C377.414 334.771 377.371 334.32 377.489 333.898C377.537 333.704 377.768 333.57 377.914 333.704Z" fill="#263238"/>
<path d="M367.482 330.644C367.482 330.584 367.348 330.644 367.324 330.729C366.838 332.114 366.11 333.62 364.64 333.595C364.64 333.595 364.579 333.668 364.64 333.68C366.219 334.045 367.239 332.041 367.482 330.644Z" fill="#263238"/>
<path d="M366.802 328.749C364.664 327.729 362.794 332.076 364.774 333.024C366.753 333.971 368.599 329.599 366.802 328.749Z" fill="#263238"/>
<path d="M365.77 328.64C365.32 328.725 364.798 328.992 364.373 328.847C363.948 328.701 363.742 328.057 363.632 327.474C363.632 327.414 363.572 327.474 363.547 327.474C363.159 328.3 363.062 329.284 363.79 329.782C364.519 330.28 365.296 329.782 365.855 329.017C365.976 328.847 365.952 328.604 365.77 328.64Z" fill="#263238"/>
<path d="M370.955 345.01C370.53 345.253 370.081 345.629 369.546 345.544C369.022 345.394 368.534 345.138 368.114 344.791C368.114 344.791 368.016 344.791 368.041 344.852C368.172 345.181 368.39 345.469 368.673 345.683C368.955 345.897 369.291 346.029 369.644 346.066C369.953 346.068 370.255 345.976 370.511 345.803C370.767 345.629 370.964 345.383 371.077 345.095C371.125 345.034 371.028 344.973 370.955 345.01Z" fill="#263238"/>
<path d="M366.717 338.112C366.717 338.112 365.77 340.104 365.502 341.088C365.502 341.185 365.697 341.306 366.025 341.428C366.819 341.856 367.717 342.054 368.618 342.001C369.519 341.947 370.387 341.643 371.125 341.124C371.234 341.051 371.125 340.905 371.028 340.942C369.499 341.396 367.865 341.35 366.365 340.808C366.365 340.517 368.101 337.444 367.956 337.384C367.159 337.202 366.342 337.133 365.527 337.177C367.385 332.963 369.911 329.077 371.696 324.851C371.757 324.705 371.55 324.584 371.465 324.705C368.635 328.787 366.219 333.139 364.252 337.699C364.009 338.246 366.268 338.149 366.717 338.112Z" fill="#263238"/>
<path d="M366.195 341.087C366.487 342.067 367.022 342.956 367.749 343.674C368.165 344.04 368.681 344.273 369.231 344.342C370.445 344.476 370.858 343.48 370.992 342.545C371.045 342.044 371.045 341.539 370.992 341.039C369.439 341.568 367.758 341.585 366.195 341.087Z" fill="#263238"/>
<path d="M367.749 343.674C368.165 344.04 368.681 344.273 369.231 344.342C370.445 344.476 370.858 343.48 370.991 342.545C370.403 342.343 369.763 342.345 369.175 342.549C368.587 342.754 368.085 343.15 367.749 343.674Z" fill="#FF9ABB"/>
<path d="M393.81 343.869C390.058 343.42 391.272 334.652 391.272 334.652C391.272 334.652 376.238 327.839 378.278 314.675C374.325 319.056 369.059 322.039 363.268 323.175C363.268 323.175 369.546 307.886 381.399 308.08C381.399 308.08 394.757 306.975 400.331 320.006C405.99 333.34 396.372 344.209 393.81 343.869Z" fill="#263238"/>
<path d="M378.472 313.715C377.769 315.658 377.484 317.727 377.634 319.787C377.755 321.861 378.305 323.888 379.249 325.738C379.477 326.204 379.737 326.655 380.027 327.086L380.439 327.742C380.597 327.96 380.755 328.155 380.925 328.349C381.253 328.75 381.569 329.162 381.921 329.563C382.273 329.964 382.662 330.28 383.038 330.62L383.609 331.142L384.241 331.591L385.455 332.478C386.341 333 387.24 333.461 388.151 333.923C387.349 333.291 386.499 332.709 385.722 332.113L384.581 331.142L384.022 330.656C383.84 330.474 383.682 330.292 383.512 330.11L382.492 329.029C382.176 328.652 381.897 328.24 381.593 327.814L381.144 327.232L380.767 326.6C380.505 326.185 380.266 325.755 380.051 325.313C379.151 323.558 378.563 321.659 378.314 319.702C378.182 318.72 378.13 317.73 378.156 316.739C378.181 315.724 378.287 314.713 378.472 313.715Z" fill="#263238"/>
<path d="M391.369 342.375C391.369 342.375 397.903 337.432 400.295 339.946C402.687 342.46 396.312 350.657 392.499 350.876C392.009 350.931 391.514 350.887 391.042 350.745C390.571 350.604 390.133 350.368 389.755 350.052C389.377 349.737 389.067 349.348 388.843 348.909C388.62 348.47 388.488 347.991 388.455 347.5L391.369 342.375Z" fill="#FFC4C0"/>
<path d="M398.413 342.266V342.363C395.705 342.557 393.737 344.367 392.11 346.382C392.325 346.188 392.581 346.043 392.858 345.957C393.135 345.871 393.427 345.847 393.714 345.885C394.002 345.923 394.278 346.023 394.523 346.178C394.768 346.333 394.976 346.54 395.134 346.783C395.134 346.844 395.134 346.929 395.037 346.892C394.659 346.623 394.207 346.477 393.743 346.477C393.279 346.477 392.827 346.623 392.45 346.892C391.813 347.337 391.23 347.855 390.713 348.435C390.531 348.605 390.179 348.362 390.337 348.143C391.272 345.01 395.037 341.513 398.413 342.266Z" fill="#263238"/>
<path d="M382.273 376.487C382.273 376.487 394.879 359.91 406.998 358.271L405.966 367.367C405.966 367.367 395.862 367.525 383.123 379.061L382.273 376.487Z" fill="#FEF250"/>
<path d="M409.233 367.598C407.027 367.415 404.808 367.705 402.724 368.448C394.405 370.403 385.916 377.228 385.916 377.228L383.488 379.474L383.221 379.717L382.917 379.56C378.849 377.349 374.756 372.2 373.991 371.192C376.827 374.016 379.967 376.517 383.354 378.649L382.783 378.746L385.212 376.438C386.062 375.698 395.352 369.589 402.554 367.853C403.088 367.707 403.659 367.61 404.205 367.5C404.752 367.391 405.323 367.343 405.881 367.318C407.006 367.222 408.139 367.316 409.233 367.598Z" fill="#263238"/>
<path d="M412.609 373.342C410.156 371.653 407.924 369.662 405.966 367.416C407.194 368.251 408.37 369.159 409.488 370.136C410.598 371.135 411.641 372.206 412.609 373.342Z" fill="#263238"/>
<path d="M386.414 374.557C387.423 378.272 388.109 382.066 388.467 385.899C388.734 388.571 388.467 398.262 385.455 398.14C382.443 398.019 386.815 391.449 387.265 386.324C387.714 381.199 386.05 377.592 385.649 374.569L386.414 374.557Z" fill="#263238"/>
<path d="M377.986 374.423C376.755 377.719 375.813 381.116 375.169 384.575C374.695 387.004 374.137 395.809 376.869 395.954C379.602 396.1 376.201 389.761 376.226 385.025C376.25 380.289 378.047 377.18 378.654 374.472L377.986 374.423Z" fill="#263238"/>
<path d="M320.63 396.319C321.505 388.11 323.448 376.646 326.289 374.169C329.131 371.691 340.121 362.826 343.291 361.612C346.461 360.397 360.621 354.483 363.292 355.916C365.442 357.07 363.122 362.693 356.394 365.571C352.746 367.22 349.202 369.09 345.781 371.169C344.056 371.983 340.036 377.763 341.263 380.241C341.98 381.686 346.327 383.289 348.962 381.989C351.598 380.69 352.083 375.395 355.034 372.796C357.985 370.198 363.401 370.368 363.754 371.776C364.106 373.185 362.357 373.962 359.77 378.99C358.095 382.22 358.228 389.847 354.391 395.433C352.448 398.736 350.708 402.155 349.181 405.67L320.63 396.319Z" fill="#FFC4C0"/>
<path d="M357.84 370.452C358.818 370.28 359.728 369.834 360.463 369.165C360.759 368.862 360.958 368.477 361.033 368.06C361.07 367.83 361.07 367.597 361.033 367.367C361.015 367.128 360.917 366.901 360.754 366.724C360.693 366.724 360.754 366.627 360.754 366.724C360.754 366.821 360.936 366.93 361.009 367.04C361.075 367.135 361.132 367.237 361.179 367.343C361.265 367.555 361.311 367.782 361.313 368.011C361.313 368.511 361.142 368.995 360.827 369.383C360.452 369.807 359.983 370.137 359.458 370.348C358.934 370.558 358.367 370.644 357.803 370.598L357.84 370.452Z" fill="#263238"/>
<path d="M326.289 374.168C328.718 370.002 335.155 362.436 341.652 359.692C346.036 357.846 361.592 364.792 361.24 367.743C360.888 370.694 358.277 370.767 354.391 370.439C352.97 370.318 345.428 367.889 344.202 369.492C342.453 371.799 340.389 379.559 340.389 379.559L326.289 374.168Z" fill="#FFC4C0"/>
<path d="M360.827 366.602C358.835 363.542 354.621 362 350.444 360.822V360.919C351.513 361.223 358.35 364.101 360.815 366.663C360.803 366.687 360.839 366.639 360.827 366.602Z" fill="#263238"/>
<path d="M326.289 374.168C328.718 370.003 335.155 362.437 341.652 359.692C346.036 357.846 358.459 366.979 358.107 369.93C357.755 372.881 354.014 373.221 349.812 371.909C348.452 371.496 343.85 368.473 342.635 370.076C340.874 372.383 336.563 378.115 336.563 378.115L326.289 374.168Z" fill="#FFC4C0"/>
<path d="M339.053 374.569C339.441 373.913 339.587 373.682 339.988 373.038C340.389 372.395 340.814 371.751 341.263 371.132C341.614 370.561 342.062 370.055 342.587 369.638C343.133 369.305 343.771 369.156 344.408 369.213C345.847 369.468 347.217 370.023 348.428 370.84C349.825 371.569 352.691 372.747 354.852 372.456C355.445 372.401 356.02 372.223 356.54 371.933C356.94 371.741 357.283 371.448 357.536 371.083C358.423 369.456 357.196 367.671 355.957 366.432C353.517 364.177 350.691 362.38 347.614 361.125C346.886 360.797 346.145 360.482 345.404 360.178C344.58 359.768 343.677 359.54 342.757 359.51C341.251 359.51 338.834 361.162 338.081 361.647C338.081 361.647 337.984 361.587 338.081 361.55C338.98 360.943 341.214 359 343.643 359.036C344.535 359.142 345.402 359.401 346.206 359.801C347.056 360.142 347.906 360.506 348.744 360.894C350.379 361.634 351.954 362.499 353.456 363.481C354.958 364.383 356.284 365.552 357.366 366.93C357.819 367.546 358.095 368.274 358.166 369.036C358.237 369.798 358.099 370.564 357.767 371.253C357.46 371.692 357.061 372.057 356.597 372.324C356.133 372.59 355.616 372.751 355.083 372.796C354.451 372.887 353.809 372.887 353.176 372.796C351.752 372.535 350.348 372.174 348.974 371.715C347.639 371.229 346.424 370.391 345.052 370.015C344.729 369.916 344.39 369.883 344.055 369.916C343.719 369.949 343.394 370.049 343.097 370.209C342.55 370.598 342.067 371.069 341.664 371.605C340.789 372.528 340.001 373.528 339.308 374.593C339.053 374.994 338.895 374.848 339.053 374.569Z" fill="#263238"/>
<path d="M324.48 377.787C325.367 375.808 326.715 367.768 328.123 365.267C329.532 362.765 336.357 354.058 339.66 354.337C343.801 354.665 339.745 362.255 337.681 365.4C335.616 368.546 336.15 373.731 336.15 373.731L324.48 377.787Z" fill="#FFC4C0"/>
<path d="M336.272 374.581C336.182 376.58 336.6 378.568 337.486 380.362C337.895 381.271 338.366 382.151 338.895 382.997C339.439 383.846 340.04 384.657 340.692 385.426C341.94 386.863 343.005 388.45 343.862 390.15C344.669 391.901 345.261 393.744 345.623 395.639C345.697 393.65 345.383 391.666 344.7 389.797C343.971 387.928 342.933 386.196 341.627 384.673C340.385 383.217 339.294 381.638 338.373 379.961C337.376 378.298 336.666 376.479 336.272 374.581Z" fill="#263238"/>
<path d="M329.192 443C337.195 441.567 341.882 427.869 350.055 403.787C351.488 399.561 329.338 374.921 326.642 378.855C323.241 383.81 314.692 410.976 313.975 418.311C312.591 432.775 319.841 444.676 329.192 443Z" fill="#FFC4C0"/>
<path d="M345.768 417.218L318.724 393.113C318.724 393.113 312.287 415.142 313.368 424.213C314.449 433.285 318.068 443.51 329.046 443.644C337.268 443.68 345.768 417.218 345.768 417.218Z" fill="#FEF250"/>
<path d="M338.13 435.034C339.004 433.674 339.781 432.241 340.559 430.808C341.336 429.375 342.004 427.905 342.672 426.436C343.34 424.967 343.959 423.449 344.481 421.919C345.056 420.394 345.495 418.821 345.793 417.219C345.173 418.712 344.505 420.182 343.838 421.651L341.846 426.06C341.202 427.541 340.534 429.011 339.927 430.516C339.32 432.022 338.676 433.504 338.13 435.034Z" fill="#263238"/>
<path d="M340.364 421.857C339.053 420.521 337.608 419.307 336.211 418.056C334.815 416.805 333.406 415.627 331.985 414.413C329.131 411.984 326.277 409.555 323.387 407.126C322.598 406.483 321.796 405.827 320.958 405.196C320.12 404.564 319.149 403.981 318.299 403.252C318.238 403.192 318.153 403.252 318.214 403.35C318.906 403.957 319.513 404.673 320.193 405.293C320.873 405.912 321.602 406.58 322.318 407.199C323.739 408.414 325.148 409.628 326.581 410.842C329.423 413.271 332.276 415.7 335.203 418.044C336.855 419.368 338.482 420.752 340.206 421.979C340.223 421.999 340.246 422.013 340.273 422.017C340.299 422.02 340.325 422.013 340.346 421.997C340.367 421.981 340.381 421.957 340.384 421.931C340.388 421.904 340.38 421.878 340.364 421.857Z" fill="#263238"/>
<path d="M374.805 374.994L385.734 408.912C385.861 409.095 385.935 409.309 385.949 409.531C385.962 409.753 385.914 409.975 385.81 410.172C385.706 410.369 385.55 410.533 385.359 410.647C385.168 410.761 384.949 410.82 384.726 410.819L366.923 412.033C366.378 412.028 365.845 411.867 365.387 411.57C364.929 411.274 364.565 410.853 364.337 410.357L353.407 376.451C352.97 375.455 353.407 374.605 354.415 374.532L372.206 373.318C372.753 373.325 373.286 373.486 373.746 373.783C374.206 374.079 374.572 374.499 374.805 374.994Z" fill="#37474F"/>
<path d="M372.692 375.14L383.621 409.058C383.748 409.241 383.822 409.455 383.836 409.677C383.849 409.899 383.801 410.121 383.697 410.318C383.593 410.515 383.437 410.679 383.246 410.793C383.055 410.907 382.836 410.966 382.613 410.965L364.81 412.179C364.265 412.174 363.732 412.013 363.274 411.716C362.816 411.42 362.451 410.999 362.224 410.503L351.294 376.585C351.167 376.402 351.093 376.188 351.08 375.966C351.066 375.743 351.114 375.522 351.218 375.325C351.322 375.128 351.478 374.964 351.669 374.85C351.861 374.736 352.079 374.676 352.302 374.678L370.093 373.464C370.64 373.471 371.173 373.632 371.633 373.929C372.092 374.225 372.459 374.645 372.692 375.14Z" fill="#455A64"/>
<path d="M367.907 377.034C367.932 377.333 368.045 377.618 368.233 377.853C368.42 378.088 368.672 378.262 368.958 378.353C369.244 378.444 369.551 378.449 369.84 378.366C370.128 378.283 370.386 378.116 370.579 377.886C370.773 377.657 370.895 377.375 370.928 377.077C370.962 376.778 370.906 376.477 370.768 376.21C370.63 375.943 370.416 375.723 370.154 375.578C369.891 375.433 369.591 375.369 369.291 375.394C368.89 375.428 368.519 375.62 368.26 375.928C368 376.235 367.873 376.633 367.907 377.034Z" fill="#263238"/>
<path d="M442.277 450.578C434.505 451.647 424.814 445.611 399.7 427.274C396.227 424.748 407.533 395.396 411.382 397.922C416.24 401.092 434.371 414.45 435.573 415.591C445.75 425.246 447.584 449.862 442.277 450.578Z" fill="#FFC4C0"/>
<path d="M420.418 406.799C420.418 406.799 413.265 396.756 407.873 392.651C402.162 388.516 395.531 385.832 388.552 384.83C381.022 383.725 362.066 386.251 361.835 391.837C361.629 396.901 380.889 393.343 380.889 393.343C380.889 393.343 360.657 393.732 361.531 399.865C362.406 405.997 384.52 400.593 384.52 400.593C384.52 400.593 363.742 401.468 365.648 407.649C367.081 412.324 387.386 408.56 387.386 408.56C387.386 408.56 369.534 409.434 370.809 414.304C372.206 419.684 391.175 417.388 391.175 417.388C396.494 429.217 404.108 432.556 409.646 434.39C410.97 434.839 420.418 406.799 420.418 406.799Z" fill="#FFC4C0"/>
<path d="M387.847 392.761C385.419 392.761 383.063 392.663 380.695 392.833C378.326 393.003 375.946 393.258 373.602 393.647C370.524 394.11 367.508 394.925 364.616 396.076C369.899 394.436 378.387 393.647 380.755 393.513C383.123 393.38 385.491 393.052 387.859 392.882C387.92 392.846 387.908 392.761 387.847 392.761Z" fill="#263238"/>
<path d="M388.625 401.31C385.589 401.395 382.553 401.31 379.529 401.577C376.505 401.845 373.663 402.258 370.664 402.683C370.433 402.683 370.518 402.828 370.761 402.804C373.772 402.5 376.578 402.452 379.589 402.185C382.601 401.918 385.661 401.541 388.637 401.383C388.673 401.383 388.673 401.31 388.625 401.31Z" fill="#263238"/>
<path d="M390.604 408.536C385.931 408.548 381.272 409.041 376.699 410.005C376.468 410.005 376.602 410.187 376.845 410.151C381.448 409.58 385.054 409.094 390.568 408.706C390.689 408.694 390.701 408.548 390.604 408.536Z" fill="#263238"/>
<path d="M420.418 402.803L410.52 438.871C410.52 438.871 437.067 454.5 442.933 450.359C448.798 446.218 444.961 425.403 438.33 417.461C435.537 414.158 420.418 402.803 420.418 402.803Z" fill="#FEF250"/>
<path d="M420.065 404.006L420.454 402.791H420.357C422.859 404.844 425.372 406.872 427.862 408.936C430.351 411.001 432.829 413.065 435.148 415.251C436.342 416.311 437.465 417.447 438.512 418.651C439.513 419.889 440.406 421.209 441.184 422.598C442.723 425.43 443.805 428.488 444.39 431.658C444.133 428.395 443.251 425.212 441.791 422.282C441.062 420.809 440.178 419.417 439.156 418.129C438.101 416.874 436.965 415.69 435.755 414.583C433.327 412.397 430.825 410.357 428.275 408.365C425.725 406.374 423.077 404.491 420.381 402.694H420.296V402.779L420.065 404.006Z" fill="#263238"/>
<path d="M426.21 411.753C425.603 413.526 425.142 415.396 424.644 417.157C424.146 418.918 423.66 420.8 423.199 422.585C422.276 426.229 421.377 429.872 420.527 433.515C420.296 434.523 420.065 435.519 419.847 436.515C419.628 437.51 419.519 438.688 419.276 439.757C419.276 439.842 419.385 439.879 419.41 439.757C419.653 438.871 420.017 438.008 420.284 437.134C420.551 436.26 420.794 435.288 421.037 434.365C421.523 432.556 421.996 430.722 422.458 428.925C423.381 425.281 424.292 421.638 425.093 417.995C425.542 415.918 426.065 413.854 426.392 411.765C426.399 411.751 426.402 411.735 426.401 411.72C426.4 411.704 426.395 411.689 426.387 411.676C426.379 411.662 426.367 411.651 426.354 411.643C426.341 411.635 426.326 411.63 426.31 411.629C426.294 411.628 426.279 411.631 426.265 411.637C426.25 411.643 426.238 411.653 426.228 411.665C426.218 411.677 426.211 411.692 426.208 411.707C426.205 411.722 426.206 411.738 426.21 411.753Z" fill="#263238"/>
<path d="M411.37 435.714C411.295 436.83 411.133 437.938 410.885 439.029L410.702 438.579C412.713 439.666 414.63 440.917 416.434 442.32C414.228 441.649 412.148 440.619 410.277 439.272L410.01 439.09C410.376 437.931 410.831 436.802 411.37 435.714Z" fill="#263238"/>
<path d="M45.7026 386.69C45.7026 386.69 18.8523 434.173 18.8401 434.209C14.5168 443.778 10.9101 452.255 9.45281 456.809C9.44754 456.833 9.44754 456.858 9.45281 456.882C8.9955 457.912 8.7835 459.035 8.83346 460.161C8.83346 460.161 8.83346 460.221 8.83346 460.246C10.8129 463.452 86.3243 500.151 89.3846 500.54C92.4449 500.928 93.8171 492.233 92.0198 488.468C90.2225 484.704 67.5861 457.732 67.5861 457.732L93.9507 410.067L45.7026 386.69Z" fill="#EB9481"/>
<path d="M88.1823 500.272C85.122 499.871 10.8129 463.451 8.83346 460.197C8.82948 460.169 8.82948 460.14 8.83346 460.112C8.7835 458.986 8.9955 457.863 9.45281 456.833C9.44605 456.809 9.44605 456.784 9.45281 456.76C10.9101 452.206 14.529 443.73 18.828 434.148C18.828 434.148 23.3577 425.854 25.155 422.975L73.1845 447.858L67.5861 457.744C67.5861 457.744 89.0081 484.46 90.8054 488.201C92.6027 491.941 91.3155 500.673 88.1823 500.272Z" fill="#EBEBEB"/>
<path d="M89.5545 499.239C86.4699 498.778 11.2379 460.014 9.31911 456.735C8.56618 455.521 13.5695 444.203 20.018 430.735L20.2244 430.31L69.0433 454.78L68.5939 455.594C68.5939 455.594 90.7567 483.306 92.4933 487.168C94.2299 491.03 92.6391 499.725 89.5545 499.239Z" fill="#CEC7FE"/>
<path d="M90.2103 495.888C77.6899 489.038 26.5394 462.613 13.7032 456.808C13.5939 456.808 13.5574 456.808 13.7032 456.881C25.9564 463.937 77.3255 489.949 90.2103 496.094C90.3803 496.228 90.4775 496.033 90.2103 495.888Z" fill="white"/>
<path d="M72.6017 457.828C68.0841 454.318 61.5871 451.938 55.9401 453.529C55.7215 453.602 55.8187 453.906 55.9401 453.942C61.5021 454.858 66.9495 456.368 72.1888 458.447C72.2294 458.475 72.275 458.493 72.323 458.503C72.3709 458.512 72.4203 458.512 72.4682 458.503C72.5161 458.493 72.5617 458.474 72.6023 458.447C72.6429 458.42 72.6778 458.385 72.7049 458.344C72.732 458.304 72.7508 458.258 72.7603 458.21C72.7698 458.162 72.7697 458.113 72.7602 458.065C72.7506 458.017 72.7316 457.971 72.7045 457.931C72.6773 457.89 72.6423 457.855 72.6017 457.828Z" fill="#263238"/>
<path d="M75.079 461.848C70.5735 458.35 64.0765 455.97 58.4295 457.561C58.211 457.621 58.296 457.937 58.4295 457.961C64.0103 458.863 69.4782 460.361 74.7389 462.43C74.8126 462.448 74.8901 462.442 74.9598 462.412C75.0295 462.383 75.0878 462.331 75.126 462.266C75.1642 462.2 75.1803 462.124 75.1718 462.049C75.1633 461.973 75.1307 461.903 75.079 461.848Z" fill="#263238"/>
<path d="M77.5684 465.881C73.0994 462.432 66.5538 460.003 60.9554 461.594C60.7368 461.654 60.834 461.958 61.0161 461.994C66.5784 462.908 72.0261 464.419 77.2648 466.5C77.3402 466.51 77.4168 466.495 77.4838 466.459C77.5508 466.423 77.6048 466.367 77.6383 466.299C77.6717 466.231 77.683 466.153 77.6705 466.078C77.6579 466.003 77.6222 465.934 77.5684 465.881Z" fill="#263238"/>
<path d="M28.3002 445.125C24.2562 439.588 15.6462 445.878 19.7022 451.416C23.7583 456.954 32.3563 450.675 28.3002 445.125Z" fill="white"/>
<path opacity="0.1" d="M71.885 459.735L77.2891 493.52C81.2688 495.635 85.3545 497.544 89.5302 499.239C92.6026 499.725 94.1813 490.969 92.469 487.095C91.1818 484.29 78.1513 467.616 71.885 459.735Z" fill="black"/>
<path d="M92.0926 497.139C93.1735 498.354 90.5504 502.726 89.3967 502.58C88.243 502.434 6.39249 459.821 5.16595 458.789C3.9394 457.756 7.02398 453.02 8.80914 453.603C10.5943 454.186 92.0926 497.139 92.0926 497.139Z" fill="#263238"/>
<path d="M25.0456 418.591L79.1714 447.482C79.1714 447.482 147.469 350.136 148.829 324.573C150.724 289.246 120.558 177.12 120.558 177.12L72.4558 176.792C72.4558 176.792 92.0197 292.16 90.4289 311.785C89.5788 322.071 25.0456 418.591 25.0456 418.591Z" fill="#263238"/>
<path d="M83.8712 436.298C81.0902 434.282 55.4421 419.43 35.9146 409.933C35.9018 409.926 35.8878 409.921 35.8732 409.92C35.8587 409.918 35.844 409.919 35.8299 409.923C35.8158 409.927 35.8026 409.934 35.7911 409.943C35.7796 409.952 35.7699 409.963 35.7628 409.976C35.7556 409.989 35.751 410.003 35.7492 410.017C35.7475 410.032 35.7486 410.046 35.7526 410.06C35.7565 410.075 35.7632 410.088 35.7722 410.099C35.7813 410.111 35.7925 410.12 35.8053 410.128C41.7315 414.038 80.0215 435.011 83.7376 436.504C83.8591 436.553 84.0291 436.383 83.8712 436.298Z" fill="#37474F"/>
<path d="M97.096 287.145C94.8615 270.265 92.3962 253.421 89.591 236.626C86.7857 219.831 83.8104 202.914 80.2887 186.18C79.8515 184.14 79.4062 182.116 78.9528 180.108C78.9465 180.076 78.9339 180.046 78.9158 180.019C78.8977 179.992 78.8744 179.968 78.8474 179.95C78.8203 179.932 78.7899 179.92 78.758 179.913C78.7261 179.907 78.6933 179.907 78.6614 179.913C78.6295 179.92 78.5992 179.932 78.5721 179.951C78.5451 179.969 78.5219 179.992 78.5039 180.019C78.4858 180.046 78.4733 180.076 78.467 180.108C78.4607 180.14 78.4607 180.173 78.4671 180.205C81.4302 196.806 84.5391 213.382 87.1986 229.995C89.8582 246.608 92.5298 263.27 94.7643 280.004C95.3229 284.133 95.8694 288.27 96.4038 292.415C97.0627 296.683 97.4682 300.985 97.6182 305.3C97.693 309.421 96.9969 313.519 95.5658 317.383C94.0388 321.159 92.1817 324.792 90.016 328.24C81.3209 342.959 42.3387 407.298 41.3307 409.168C41.3307 409.289 41.44 409.423 41.5129 409.301C50.8638 394.729 79.8758 348.436 88.7045 333.474C92.6877 326.722 97.2053 319.885 98.5532 312.016C99.9134 303.831 98.1646 295.269 97.096 287.145Z" fill="#37474F"/>
<path d="M83.2275 418.591C83.2275 418.591 82.6932 473.47 82.6932 473.507C82.9725 483.999 83.4218 493.192 84.0898 497.94C84.0841 497.964 84.0841 497.989 84.0898 498.013C84.1278 499.138 84.4228 500.238 84.952 501.231L85.0249 501.292C88.2066 503.32 172.158 503.454 175.085 502.506C178.011 501.559 175.449 493.095 172.194 490.496C168.94 487.897 136.807 473.494 136.807 473.494V418.652L83.2275 418.591Z" fill="#EB9481"/>
<path d="M82.8147 462.237C82.8147 462.237 82.7054 473.47 82.7054 473.506C82.9847 483.999 83.434 493.192 84.102 497.94C84.0963 497.964 84.0963 497.989 84.102 498.013C84.2654 499.115 84.5547 500.195 84.9642 501.231L85.0371 501.292C88.2188 503.32 172.17 503.453 175.097 502.506C178.024 501.559 175.461 493.095 172.207 490.496C168.952 487.897 136.819 473.494 136.819 473.494V462.055L82.8147 462.237Z" fill="#EBEBEB"/>
<path d="M175.109 502.373C172.146 503.308 87.5265 501.827 84.3448 499.714C83.1304 498.937 82.6203 486.598 82.4382 471.673V471.2L137.086 471.552V472.475C137.086 472.475 169.219 487.533 172.474 490.217C175.728 492.901 178.109 501.438 175.109 502.373Z" fill="#CEC7FE"/>
<path d="M174.235 499.069C159.978 498.462 102.415 497.393 88.2794 497.855C88.1701 497.855 88.158 497.94 88.2794 497.94C102.391 498.851 159.929 499.458 174.235 499.276C174.538 499.3 174.538 499.081 174.235 499.069Z" fill="white"/>
<path d="M141.604 472.717C136.017 471.575 129.132 472.316 124.772 476.239C124.602 476.397 124.772 476.627 125.003 476.579C130.399 474.937 135.957 473.882 141.579 473.433C141.664 473.421 141.741 473.379 141.798 473.316C141.855 473.252 141.888 473.171 141.891 473.085C141.893 473 141.866 472.916 141.814 472.849C141.761 472.782 141.687 472.735 141.604 472.717Z" fill="#263238"/>
<path d="M145.623 475.231C140.025 474.089 133.139 474.83 128.78 478.753C128.61 478.898 128.78 479.141 129.01 479.093C134.407 477.451 139.964 476.396 145.587 475.947C145.672 475.937 145.75 475.896 145.809 475.834C145.867 475.771 145.901 475.69 145.905 475.604C145.91 475.519 145.884 475.435 145.832 475.366C145.781 475.298 145.707 475.25 145.623 475.231Z" fill="#263238"/>
<path d="M149.607 477.745C144.008 476.603 137.123 477.344 132.763 481.267C132.605 481.412 132.763 481.655 133.006 481.607C138.41 479.962 143.976 478.908 149.607 478.461C149.69 478.446 149.766 478.402 149.82 478.336C149.875 478.271 149.905 478.188 149.905 478.103C149.905 478.018 149.875 477.936 149.82 477.87C149.766 477.805 149.69 477.76 149.607 477.745Z" fill="#263238"/>
<path d="M176.481 499.361C177.987 499.968 177.574 505.044 176.481 505.433C175.388 505.821 83.1304 503.793 81.5638 503.417C79.9972 503.04 80.6773 497.418 82.511 497.163C84.3448 496.907 176.481 499.361 176.481 499.361Z" fill="#263238"/>
<path d="M96.2702 480.927C90.1982 477.745 85.2434 487.193 91.3276 490.375C97.4117 493.556 102.354 484.108 96.2702 480.927Z" fill="white"/>
<path d="M119.939 177.047C119.623 178.043 102.33 225.417 100.703 226.17C98.8569 227.02 138.896 294.261 141.264 325.508C142.77 345.484 139.806 458.557 139.806 458.557H81.2724C81.2724 458.557 84.0777 356.9 85.4135 324.694C85.9357 312.198 45.229 250.008 44.7311 211.293C44.5732 199.089 53.3412 176.78 53.3412 176.78L119.939 177.047Z" fill="#263238"/>
<path d="M85.7535 323.832C85.7535 323.31 85.3406 323.152 85.3041 323.674C83.9805 341.113 83.6769 358.442 82.8754 375.893C82.0738 393.344 82.5232 397.497 81.746 414.912C81.3088 424.761 81.746 434.646 81.4909 444.507C81.4909 444.539 81.5037 444.57 81.5265 444.593C81.5493 444.615 81.5802 444.628 81.6124 444.628C81.6446 444.628 81.6755 444.615 81.6982 444.593C81.721 444.57 81.7338 444.539 81.7338 444.507C83.519 427.214 85.7413 333.705 85.7535 323.832Z" fill="#37474F"/>
<path d="M141.251 326.2C141.169 321.897 140.763 317.606 140.037 313.364C139.218 309.239 137.998 305.204 136.394 301.317C133.151 293.168 129.338 285.214 125.683 277.247C122.028 269.281 118.202 261.132 114.304 253.141C112.102 248.664 109.892 244.187 107.673 239.71C105.427 235.193 103.01 230.748 100.654 226.279C100.632 226.25 100.601 226.229 100.565 226.22C100.53 226.212 100.493 226.216 100.46 226.231C100.427 226.247 100.4 226.274 100.385 226.307C100.369 226.34 100.366 226.377 100.375 226.413C104.127 234.464 107.819 242.54 111.572 250.591C115.324 258.643 119.004 266.731 122.695 274.819C126.387 282.906 129.982 290.727 133.37 298.779C135.075 302.604 136.472 306.559 137.548 310.607C138.512 314.795 139.085 319.064 139.26 323.358C139.819 333.353 140.098 343.383 141.081 353.354C141.081 353.475 141.3 353.463 141.3 353.354C141.664 344.319 141.519 335.223 141.251 326.2Z" fill="#37474F"/>
<path d="M135.556 446.996C132.156 446.559 106.216 445.66 84.5512 446.583C84.5222 446.583 84.4944 446.594 84.4739 446.615C84.4534 446.635 84.4419 446.663 84.4419 446.692C84.4419 446.721 84.4534 446.749 84.4739 446.77C84.4944 446.79 84.5222 446.802 84.5512 446.802C91.6311 447.433 131.573 447.7 135.556 447.251C135.653 447.239 135.714 447.02 135.556 446.996Z" fill="#37474F"/>
<path d="M108.779 223.547C102.507 225.134 96.384 227.259 90.4775 229.898C90.4528 229.907 90.4301 229.92 90.4106 229.938C90.3911 229.956 90.3753 229.977 90.364 230C90.3527 230.024 90.3462 230.05 90.3449 230.076C90.3435 230.102 90.3473 230.128 90.3561 230.153C90.3649 230.178 90.3784 230.201 90.396 230.22C90.4136 230.24 90.4348 230.255 90.4585 230.267C90.4821 230.278 90.5078 230.284 90.534 230.286C90.5602 230.287 90.5864 230.283 90.6111 230.275C96.6831 228.344 102.998 226.546 109.021 224.288C109.12 224.255 109.201 224.185 109.248 224.093C109.294 224.001 109.303 223.894 109.27 223.796C109.238 223.697 109.168 223.616 109.076 223.569C108.984 223.523 108.877 223.515 108.779 223.547Z" fill="#37474F"/>
<path d="M114.681 183.435C114.681 183.229 114.34 183.144 114.316 183.362C113.648 190.357 112.567 196.454 111.317 202.926C110.734 205.926 106.568 222.43 101.444 220.669C100.581 220.365 100.229 219.454 100.229 218.118C100.425 216.387 100.833 214.686 101.444 213.054C102.391 209.606 103.217 206.132 103.872 202.623C105.159 196.093 105.766 189.447 105.682 182.792C105.682 182.747 105.664 182.703 105.632 182.671C105.6 182.64 105.557 182.622 105.512 182.622C105.467 182.622 105.423 182.64 105.392 182.671C105.36 182.703 105.342 182.747 105.342 182.792C104.565 191.953 103.096 201.043 100.946 209.982C99.8406 214.281 96.9746 220.608 101.456 221.75C105.937 222.891 110.163 212.229 111.037 209.278C113.366 200.858 114.591 192.171 114.681 183.435Z" fill="#37474F"/>
<path d="M101.541 221.13C100.955 222.213 100.44 223.333 99.9984 224.482C99.5671 225.36 99.3035 226.312 99.2212 227.287C99.2212 227.469 99.464 227.518 99.5733 227.396C100.205 226.594 100.713 225.702 101.079 224.749C101.589 223.717 102.124 222.697 102.597 221.64C102.665 221.5 102.674 221.339 102.623 221.192C102.572 221.045 102.464 220.924 102.324 220.857C102.184 220.789 102.023 220.78 101.876 220.831C101.729 220.882 101.608 220.99 101.541 221.13Z" fill="#37474F"/>
<path d="M91.7405 340.992C92.0441 332.673 92.9549 323.99 90.2347 315.914C88.7482 311.988 86.966 308.18 84.9035 304.523C82.8795 300.613 80.8878 296.682 78.9286 292.731C71.1079 276.944 63.7365 260.89 57.1544 244.544C53.9848 236.663 51.1553 228.587 50.0259 220.135C48.9856 211.259 49.5367 202.27 51.6532 193.588C52.1511 191.426 52.6733 189.265 53.2683 187.127C53.2683 186.969 53.074 186.884 53.0255 187.042C50.2562 195.23 48.7174 203.784 48.4593 212.423C48.5157 220.713 50.0072 228.93 52.8676 236.711C55.6728 244.872 59.1825 252.814 62.5828 260.72C66.1531 268.881 69.8611 276.977 73.7067 285.008C77.532 292.986 81.6124 300.795 85.6564 308.701C87.7425 312.442 89.257 316.474 90.1497 320.663C90.7729 325.001 90.9357 329.393 90.6354 333.766C89.9432 352.164 88.3523 413.431 88.1216 431.792C88.1216 434.124 88.1216 436.456 88.0366 438.775C88.0366 438.982 88.3523 439.018 88.3645 438.775C89.591 420.498 91.0847 359.378 91.7405 340.992Z" fill="#37474F"/>
<path d="M78.6127 188.936C78.6127 188.803 78.4184 188.827 78.3941 188.936C77.7019 194 77.3133 199.259 74.8602 203.849C72.6257 208.063 68.7032 210.783 64.4407 212.69C61.9563 213.754 59.4189 214.691 56.8385 215.495C56.6564 215.556 56.7049 215.835 56.8385 215.799C61.6961 214.791 66.5537 213.661 70.8163 210.941C75.3095 208.039 77.629 203.375 78.3698 198.166C78.7715 195.106 78.8529 192.013 78.6127 188.936Z" fill="#37474F"/>
<path d="M113.175 108.713C123.121 127.706 154.367 155.152 164.325 157.556C176.615 160.507 203.89 139.935 214.468 127.816C218.84 122.8 200.611 100.941 192.766 101.961C188.443 102.532 166.329 124.743 162.674 123.213C153.869 119.57 141.628 112.016 124.153 101.9C114.644 96.3991 106.993 96.897 113.175 108.713Z" fill="#EB9481"/>
<path d="M183.343 109.284C183.343 109.284 188.297 100.455 191.333 97.0549C194.369 93.6546 210.327 85.1295 212.367 88.4691C214.99 92.7923 206.744 99.5201 202.275 102.289C202.275 102.289 208.347 112.271 203.49 118.392C198.632 124.512 183.343 109.284 183.343 109.284Z" fill="#EB9481"/>
<path d="M211.116 131.07C214.492 129.139 229.174 118.926 232.623 115.197C236.072 111.469 245.216 99.9325 242.618 96.9815C240.019 94.0305 237.068 97.2001 237.068 97.2001C237.068 97.2001 240.152 91.7353 237.262 89.015C234.372 86.2948 229.976 91.3588 229.976 91.3588C229.976 91.3588 232.744 85.5054 229.66 83.0037C226.575 80.5021 222.993 86.3433 222.993 86.3433C222.993 86.3433 225.762 81.1093 222.361 80.1135C218.269 78.8991 214.237 89.1486 210.12 92.9983C209.185 93.8726 189.888 109.405 189.888 109.405L211.116 131.07Z" fill="#EB9481"/>
<path d="M223.284 85.8582C220.297 93.3753 217.698 96.1441 211.262 100.832C211.14 100.929 211.262 101.135 211.383 101.05C218.099 97.0306 221.875 94.0311 223.648 85.9918C223.746 85.591 223.43 85.506 223.284 85.8582Z" fill="#263238"/>
<path d="M230.17 90.8249C226.393 98.3541 223.6 101.39 217.224 106.794C217.127 106.867 217.224 107.037 217.346 106.964C224.049 102.179 227.741 99.0949 230.522 91.0677C230.656 90.667 230.352 90.4363 230.17 90.8249Z" fill="#263238"/>
<path d="M236.727 97.4797C232.538 104.511 229.611 107.972 222.75 112.417C222.722 112.441 222.704 112.474 222.698 112.511C222.692 112.547 222.699 112.584 222.718 112.616C222.737 112.648 222.766 112.672 222.8 112.684C222.835 112.697 222.873 112.696 222.908 112.684C230.34 108.822 234.019 104.535 236.934 97.6375C237.128 97.1639 237.043 97.0425 236.727 97.4797Z" fill="#263238"/>
<path d="M212.755 89.8901C212.318 95.5614 206.21 98.816 202.081 101.828C202.018 101.871 201.967 101.929 201.932 101.997C201.896 102.065 201.878 102.14 201.878 102.216C201.878 102.293 201.896 102.368 201.932 102.435C201.967 102.503 202.018 102.561 202.081 102.605C204.352 106.952 206.295 113.753 203.89 118.392C203.88 118.419 203.88 118.448 203.889 118.476C203.899 118.503 203.917 118.526 203.942 118.54C203.967 118.555 203.996 118.56 204.024 118.555C204.053 118.55 204.078 118.536 204.097 118.514C207.339 113.935 205.979 107.098 203.186 102.483C207.473 99.4717 213.448 95.9257 212.84 89.9387L212.755 89.8901Z" fill="#263238"/>
<path d="M147.433 113.048L135.034 141.72C135.034 141.72 113.43 115.004 109.301 105.349C104.674 94.4681 111.207 94.4681 121.675 98.5728C132.144 102.677 147.433 113.048 147.433 113.048Z" fill="#CEC7FE"/>
<path d="M139.588 110.777C139.225 110.766 138.871 110.666 138.556 110.486C138.259 110.31 138.014 110.059 137.845 109.759C137.677 109.458 137.591 109.118 137.596 108.774C137.587 108.32 137.445 107.88 137.188 107.507C136.931 107.133 136.571 106.843 136.151 106.673C135.762 106.533 135.345 106.492 134.937 106.551C134.548 106.551 134.147 106.636 133.722 106.709L134.937 106.855C135.305 106.863 135.666 106.954 135.993 107.122C136.296 107.284 136.55 107.523 136.729 107.815C136.908 108.108 137.006 108.443 137.013 108.786C137.008 109.237 137.135 109.68 137.379 110.06C137.623 110.44 137.973 110.74 138.386 110.923C138.767 111.091 139.187 111.15 139.6 111.093C140.001 111.032 140.401 111.008 140.814 110.935C140.389 110.862 139.989 110.826 139.588 110.777ZM109.228 104.171C109.228 103.77 109.143 103.382 109.07 102.957C108.997 103.357 108.973 103.746 108.924 104.171C108.93 104.219 108.93 104.268 108.924 104.317L109.228 105.07C109.269 104.774 109.256 104.474 109.191 104.183L109.228 104.171ZM128.889 121.537C128.623 121.788 128.297 121.968 127.942 122.059C127.61 122.145 127.261 122.142 126.931 122.05C126.6 121.958 126.3 121.781 126.059 121.537C125.734 121.223 125.324 121.01 124.879 120.926C124.435 120.842 123.976 120.89 123.558 121.063C123.165 121.245 122.827 121.526 122.574 121.877C122.331 122.193 122.076 122.484 121.845 122.824C122.173 122.593 122.477 122.338 122.793 122.095C123.057 121.836 123.377 121.641 123.728 121.525C124.056 121.429 124.404 121.421 124.737 121.502C125.069 121.583 125.374 121.75 125.622 121.986C125.853 122.226 126.133 122.413 126.443 122.533C126.754 122.653 127.087 122.704 127.419 122.682C127.751 122.66 128.074 122.565 128.366 122.405C128.657 122.245 128.911 122.024 129.108 121.755C129.35 121.44 129.605 121.136 129.836 120.808C129.472 121.039 129.168 121.294 128.853 121.537H128.889Z" fill="white"/>
<path d="M141.81 111.81C139.734 115.246 134.961 126.382 134.159 128.277C133.734 129.248 132.204 133.134 131.731 134.154C131.731 134.276 131.876 134.337 131.925 134.154C132.751 132.321 133.771 130.511 134.609 128.726C135.447 126.941 140.681 115.683 141.895 111.822C141.884 111.811 141.87 111.804 141.855 111.802C141.839 111.8 141.824 111.802 141.81 111.81Z" fill="#263238"/>
<path opacity="0.1" d="M109.289 105.398C113.418 115.113 135.022 141.83 135.022 141.83L141.409 127.051L111.39 96.1685C107.734 96.2535 106.52 98.8766 109.289 105.398Z" fill="black"/>
<path d="M45.4231 189.459L128.16 205.489C127.844 207.116 131.706 148.412 125.659 107.669C123.873 95.6219 110.345 89.9263 97.7273 100.577C71.0955 122.994 45.2288 190.515 45.4231 189.459Z" fill="#CEC7FE"/>
<path d="M62.5706 151.727L62.182 152.505L62.4249 152.238C62.6557 151.922 62.9228 151.618 63.1414 151.29C62.9471 151.424 62.7528 151.545 62.5706 151.727ZM127.371 189.374C127.045 189.06 126.634 188.849 126.19 188.767C125.745 188.685 125.286 188.736 124.869 188.912C124.476 189.088 124.137 189.364 123.886 189.714C123.643 190.03 123.388 190.333 123.157 190.661C123.485 190.43 123.789 190.175 124.104 189.932C124.37 189.678 124.689 189.487 125.039 189.374C125.368 189.276 125.716 189.267 126.049 189.348C126.382 189.429 126.687 189.597 126.934 189.835C127.165 190.065 127.44 190.245 127.743 190.366C128.045 190.487 128.369 190.546 128.695 190.54C128.695 190.345 128.695 190.151 128.695 189.957C128.19 189.929 127.716 189.707 127.371 189.337V189.374ZM78.8557 193.77C78.5868 194.021 78.2621 194.204 77.9085 194.304C77.5754 194.387 77.2264 194.382 76.8962 194.288C76.566 194.194 76.2661 194.016 76.0262 193.77C75.6976 193.457 75.2847 193.246 74.8381 193.164C74.3916 193.082 73.9308 193.132 73.5124 193.309C73.1237 193.486 72.7886 193.762 72.5409 194.11L72.1037 194.669H72.2737L72.7473 194.304C73.0092 194.051 73.3246 193.86 73.6703 193.746C74.0004 193.647 74.351 193.637 74.6861 193.718C75.0211 193.799 75.3286 193.968 75.5769 194.207C75.8084 194.446 76.0893 194.632 76.4001 194.751C76.7109 194.87 77.044 194.92 77.3761 194.897C77.7081 194.874 78.0311 194.778 78.3223 194.617C78.6136 194.456 78.8661 194.233 79.0622 193.964C79.3051 193.649 79.5601 193.357 79.7908 193.017C79.4751 193.236 79.1715 193.491 78.8557 193.734V193.77ZM100.545 151.047C100.281 151.296 99.9598 151.475 99.6098 151.57C99.2761 151.659 98.9247 151.657 98.5917 151.566C98.2587 151.474 97.9562 151.295 97.7154 151.047C97.3912 150.731 96.9802 150.518 96.5348 150.436C96.0893 150.354 95.6294 150.406 95.2137 150.586C94.8206 150.761 94.4811 151.038 94.23 151.387C93.9872 151.703 93.7321 152.007 93.5014 152.335C93.8293 152.104 94.1329 151.849 94.4486 151.606C94.7088 151.345 95.0303 151.153 95.3837 151.047C95.7109 150.946 96.0591 150.935 96.3922 151.014C96.7253 151.093 97.0312 151.26 97.2782 151.497C97.5892 151.809 97.9829 152.027 98.4131 152.123C98.8432 152.22 99.2921 152.192 99.707 152.043C100.111 151.887 100.461 151.617 100.715 151.266C100.958 150.95 101.213 150.647 101.444 150.319C101.164 150.513 100.861 150.768 100.545 151.011V151.047ZM127.347 122.145C126.847 122.136 126.372 121.931 126.023 121.574C125.698 121.26 125.287 121.047 124.843 120.963C124.398 120.879 123.939 120.927 123.521 121.1C123.129 121.282 122.79 121.563 122.538 121.914C122.295 122.23 122.04 122.521 121.809 122.861C122.137 122.63 122.441 122.375 122.756 122.133C123.02 121.874 123.34 121.678 123.691 121.562C124.02 121.466 124.368 121.459 124.7 121.54C125.033 121.621 125.338 121.787 125.586 122.023C125.821 122.26 126.104 122.445 126.416 122.564C126.728 122.683 127.062 122.735 127.395 122.715C127.393 122.512 127.377 122.309 127.347 122.108V122.145ZM128.743 145.218C128.359 145.278 127.996 145.433 127.686 145.668C127.377 145.904 127.131 146.212 126.97 146.566C126.815 146.951 126.76 147.369 126.812 147.781C126.812 148.169 126.897 148.57 126.97 148.995C127.043 148.606 127.067 148.206 127.116 147.781C127.137 147.414 127.241 147.057 127.42 146.736C127.563 146.492 127.758 146.282 127.991 146.121C128.223 145.959 128.489 145.85 128.768 145.801C128.755 145.558 128.743 145.352 128.743 145.133V145.218ZM80.1673 136.05C80.1673 135.649 80.0823 135.248 80.0094 134.835C79.9366 135.224 79.9123 135.625 79.8515 136.05C79.8456 136.412 79.7585 136.769 79.5965 137.094C79.4338 137.396 79.1942 137.649 78.902 137.828C78.6098 138.007 78.2754 138.106 77.9328 138.114C77.4803 138.111 77.0365 138.239 76.6551 138.482C76.2737 138.726 75.9709 139.075 75.7833 139.486C75.6278 139.871 75.5735 140.289 75.6254 140.701C75.6254 141.102 75.7104 141.49 75.7833 141.915C75.8562 141.514 75.8805 141.126 75.9412 140.701C75.9526 140.334 76.0526 139.976 76.2326 139.656C76.41 139.361 76.6612 139.118 76.9615 138.949C77.2618 138.781 77.6007 138.694 77.9449 138.697C78.3984 138.689 78.8395 138.548 79.2132 138.291C79.5868 138.034 79.8764 137.673 80.0459 137.252C80.2101 136.844 80.2604 136.399 80.1916 135.965L80.1673 136.05ZM61.417 176.222C61.417 175.833 61.332 175.433 61.2591 175.008C61.1862 175.408 61.1619 175.809 61.1134 176.222C61.1055 176.59 61.0141 176.951 60.8462 177.278C60.6845 177.581 60.4451 177.835 60.1527 178.014C59.8603 178.193 59.5254 178.292 59.1825 178.299C58.731 178.293 58.2879 178.42 57.908 178.664C57.5281 178.908 57.2281 179.258 57.0451 179.671C56.8788 180.053 56.82 180.472 56.8751 180.885C56.8751 181.274 56.9601 181.675 57.033 182.1C57.1058 181.711 57.1301 181.31 57.1909 180.885C57.2008 180.518 57.3009 180.16 57.4823 179.841C57.6578 179.544 57.9086 179.299 58.2094 179.131C58.5101 178.962 58.85 178.876 59.1946 178.881C59.6477 178.872 60.0881 178.73 60.4615 178.473C60.8348 178.217 61.1248 177.856 61.2955 177.436C61.4347 177.048 61.4764 176.631 61.417 176.222ZM99.7677 173.793C99.7677 173.405 99.6827 173.004 99.6098 172.579C99.537 172.967 99.5127 173.368 99.452 173.793C99.4478 174.16 99.3607 174.521 99.1969 174.85C99.0342 175.151 98.7946 175.405 98.5024 175.584C98.2102 175.763 97.8759 175.862 97.5332 175.87C97.081 175.868 96.6379 175.997 96.2567 176.24C95.8756 176.483 95.5725 176.831 95.3837 177.242C95.2282 177.627 95.1739 178.045 95.2258 178.456C95.2258 178.845 95.3108 179.246 95.3837 179.671C95.4566 179.282 95.4809 178.881 95.5416 178.456C95.5515 178.09 95.6516 177.731 95.833 177.412C96.0086 177.115 96.2594 176.87 96.5601 176.702C96.8608 176.533 97.2007 176.447 97.5453 176.453C97.9984 176.443 98.4388 176.302 98.8122 176.045C99.1856 175.788 99.4755 175.427 99.6463 175.008C99.812 174.604 99.8706 174.165 99.8163 173.732L99.7677 173.793ZM109.191 104.184C109.191 103.783 109.106 103.394 109.034 102.969C108.961 103.37 108.936 103.759 108.888 104.184C108.874 104.551 108.783 104.911 108.621 105.24C108.457 105.541 108.217 105.792 107.925 105.969C107.633 106.146 107.299 106.242 106.957 106.248C106.505 106.247 106.062 106.375 105.68 106.618C105.299 106.862 104.996 107.21 104.807 107.621C104.652 108.005 104.598 108.423 104.65 108.835C104.65 109.236 104.735 109.624 104.807 110.049C104.88 109.649 104.905 109.26 104.965 108.835C104.975 108.472 105.075 108.117 105.257 107.803C105.43 107.504 105.681 107.258 105.982 107.089C106.283 106.92 106.624 106.836 106.969 106.843C107.421 106.831 107.86 106.688 108.233 106.431C108.606 106.175 108.897 105.816 109.07 105.398C109.209 105.009 109.251 104.592 109.191 104.184ZM85.5835 118.514C85.3258 118.772 85.009 118.964 84.6606 119.072C84.3334 119.173 83.9852 119.185 83.6521 119.106C83.319 119.027 83.0131 118.86 82.7661 118.623C82.6166 118.463 82.4398 118.332 82.2439 118.234C82.1306 118.404 82.0091 118.574 81.8796 118.744C82.0406 118.832 82.1879 118.942 82.3168 119.072C82.6437 119.388 83.0567 119.601 83.504 119.683C83.9512 119.765 84.4127 119.713 84.8306 119.534C85.2193 119.357 85.5544 119.08 85.8021 118.732C86.045 118.417 86.3121 118.113 86.5307 117.785C86.2029 118.016 85.8993 118.271 85.5835 118.514ZM121.566 165.669C121.2 165.657 120.841 165.557 120.522 165.377C120.228 165.199 119.985 164.948 119.817 164.648C119.648 164.347 119.561 164.009 119.562 163.665C119.555 163.212 119.413 162.77 119.156 162.397C118.899 162.023 118.538 161.734 118.117 161.564C117.729 161.421 117.311 161.379 116.903 161.443C116.502 161.443 116.101 161.528 115.688 161.588C116.077 161.661 116.478 161.698 116.903 161.746C117.267 161.756 117.624 161.847 117.947 162.013C118.251 162.174 118.505 162.413 118.685 162.706C118.864 162.999 118.962 163.334 118.967 163.677C118.965 164.128 119.093 164.57 119.337 164.949C119.58 165.328 119.929 165.629 120.34 165.815C120.722 165.98 121.141 166.038 121.554 165.985C121.955 165.985 122.343 165.9 122.768 165.827C122.356 165.754 121.967 165.717 121.566 165.669ZM99.962 199.15C99.9575 198.696 99.8175 198.253 99.5601 197.879C99.3026 197.505 98.9394 197.216 98.5169 197.049C98.131 196.897 97.7107 196.855 97.3025 196.927C96.9017 196.927 96.501 197 96.0881 197.073C96.4767 197.146 96.8774 197.182 97.3025 197.231C97.6671 197.234 98.0254 197.326 98.3469 197.498C98.6502 197.659 98.9048 197.898 99.0842 198.191C99.2636 198.483 99.3613 198.819 99.3669 199.162C99.363 199.423 99.4083 199.683 99.5005 199.927L100.229 200.073C100.061 199.794 99.9686 199.476 99.962 199.15ZM78.2364 167.964C77.8698 167.953 77.5115 167.853 77.192 167.673C76.8954 167.497 76.6504 167.246 76.4819 166.946C76.3134 166.645 76.2274 166.305 76.2326 165.96C76.2249 165.507 76.0837 165.066 75.8267 164.692C75.5696 164.318 75.2082 164.029 74.7875 163.859C74.3987 163.72 73.9817 163.678 73.5731 163.738C73.1845 163.738 72.7837 163.823 72.3587 163.896C72.7473 163.956 73.1481 163.993 73.5731 164.041C73.941 164.049 74.3022 164.141 74.6296 164.309C74.9321 164.47 75.1861 164.71 75.3653 165.002C75.5446 165.295 75.6428 165.629 75.6497 165.972C75.6443 166.306 75.7115 166.636 75.8467 166.941C75.9819 167.246 76.1819 167.517 76.4327 167.737C76.6835 167.956 76.9791 168.119 77.299 168.212C77.6188 168.306 77.9553 168.329 78.285 168.28C78.6736 168.219 79.0743 168.195 79.4994 168.122C79.0258 168.049 78.625 168.013 78.2364 167.964ZM107.382 133.038C107.017 133.028 106.662 132.923 106.35 132.734C106.053 132.562 105.808 132.313 105.639 132.014C105.471 131.716 105.385 131.377 105.39 131.034C105.38 130.581 105.237 130.142 104.98 129.769C104.724 129.396 104.364 129.105 103.945 128.933C103.558 128.786 103.14 128.74 102.731 128.8C102.33 128.8 101.941 128.885 101.516 128.957C101.917 129.03 102.306 129.067 102.731 129.115C103.099 129.117 103.462 129.209 103.787 129.383C104.089 129.545 104.342 129.785 104.521 130.077C104.701 130.369 104.799 130.704 104.807 131.046C104.804 131.496 104.931 131.937 105.172 132.316C105.413 132.695 105.759 132.996 106.168 133.184C106.551 133.345 106.97 133.4 107.382 133.341C107.783 133.341 108.183 133.256 108.596 133.184C108.208 133.123 107.807 133.086 107.406 133.038H107.382Z" fill="white"/>
<path d="M120.157 110.256C116.126 111.142 107.843 106.26 105.087 100.48C104.905 100.079 105.718 96.0593 106.471 91.1167C106.92 88.1292 107.358 84.7775 107.528 81.6929C107.528 81.0614 126.606 87.4735 126.606 87.4735C125.289 91.2662 124.44 95.2058 124.08 99.2046C124.061 99.6104 124.081 100.017 124.141 100.419C124.141 100.419 124.141 100.54 124.141 100.625C124.408 103.139 124.469 109.345 120.157 110.256Z" fill="#EB9481"/>
<path d="M124.104 100.54C124.104 100.54 124.104 100.674 124.104 100.747C123.441 100.801 122.775 100.801 122.113 100.747C110.746 99.8724 108.536 85.4575 108.159 81.8143C111.572 82.4944 126.557 87.5463 126.557 87.5463C125.233 91.3377 124.381 95.2777 124.019 99.2774C124.016 99.6999 124.045 100.122 124.104 100.54Z" fill="#263238"/>
<path d="M105.281 57.514C103.01 64.3268 106.168 84.2308 110.94 88.7848C117.874 95.3668 129.448 96.2533 135.095 87.874C140.571 79.7618 136.005 53.8708 130.65 49.7175C122.756 43.6091 108.608 47.4466 105.281 57.514Z" fill="#EB9481"/>
<path d="M124.335 69.8522C124.335 69.8522 124.238 69.925 124.25 69.9857C124.505 71.3216 124.566 72.8882 123.412 73.5197C123.412 73.5197 123.412 73.6047 123.412 73.5925C124.894 73.1553 124.784 71.0787 124.335 69.8522Z" fill="#263238"/>
<path d="M122.89 68.6258C120.704 68.7958 121.202 73.1555 123.218 72.9977C125.234 72.8398 124.76 68.4922 122.89 68.6258Z" fill="#263238"/>
<path d="M132.18 69.1844C132.18 69.1844 132.289 69.1844 132.289 69.2937C132.411 70.6417 132.763 72.1719 134.026 72.4876V72.5605C132.52 72.524 132.071 70.4839 132.18 69.1844Z" fill="#263238"/>
<path d="M133.224 67.6421C135.374 67.2292 136.042 71.5646 134.05 71.941C132.058 72.3175 131.391 67.9821 133.224 67.6421Z" fill="#263238"/>
<path d="M120.983 66.8286C121.535 66.5991 122.074 66.3397 122.598 66.0514C123.206 65.8472 123.733 65.4561 124.104 64.9341C124.182 64.7443 124.197 64.5345 124.146 64.3356C124.096 64.1367 123.983 63.9592 123.825 63.829C123.471 63.6232 123.069 63.5148 122.659 63.5148C122.25 63.5148 121.847 63.6232 121.493 63.829C120.718 64.1539 120.088 64.7496 119.72 65.5049C119.644 65.684 119.622 65.8815 119.657 66.0731C119.691 66.2646 119.782 66.4417 119.916 66.5826C120.05 66.7234 120.223 66.8218 120.413 66.8655C120.602 66.9092 120.801 66.8964 120.983 66.8286Z" fill="#263238"/>
<path d="M134.657 65.2497C134.058 65.2013 133.462 65.1161 132.872 64.9947C132.235 65.0003 131.615 64.7906 131.111 64.3996C130.975 64.2442 130.893 64.0479 130.88 63.8413C130.867 63.6347 130.923 63.4296 131.039 63.2581C131.315 62.9572 131.667 62.7355 132.057 62.616C132.448 62.4964 132.863 62.4833 133.261 62.578C134.098 62.6396 134.882 63.0121 135.459 63.6224C135.58 63.7703 135.657 63.9501 135.679 64.1402C135.701 64.3303 135.667 64.5227 135.583 64.6944C135.498 64.8661 135.366 65.0098 135.202 65.1082C135.038 65.2067 134.849 65.2558 134.657 65.2497Z" fill="#263238"/>
<path d="M130.176 79.6525C129.632 80.5173 128.875 81.2281 127.978 81.717C127.482 81.9636 126.922 82.0486 126.375 81.9599C125.161 81.7656 125.039 80.7455 125.161 79.7618C125.229 79.2618 125.36 78.7723 125.549 78.3046C126.909 79.2351 128.53 79.7073 130.176 79.6525Z" fill="#263238"/>
<path d="M127.942 81.7168C127.446 81.9634 126.885 82.0484 126.339 81.9597C125.124 81.7654 125.003 80.7453 125.124 79.7616C125.746 79.7214 126.362 79.8927 126.874 80.2478C127.386 80.6028 127.762 81.1206 127.942 81.7168Z" fill="#FF9ABB"/>
<path d="M111.669 68.6379C112.956 64.7518 110.673 58.2791 112.604 56.4939C116.757 52.6928 125.404 59.8456 131.293 59.8335C137.183 59.8214 138.871 56.1903 137.803 51.5027C136.734 46.8151 132.775 43.8034 126.363 42.9048C120.762 42.3092 115.13 43.6927 110.442 46.8151C110.442 46.8151 111.863 44.4956 111.317 43.7791C110.77 43.0626 107.989 45.3093 107.139 46.2079C106.522 47.043 106.058 47.9803 105.767 48.9768C104.917 48.7684 104.042 48.6825 103.168 48.7217C101.893 48.8507 100.706 49.4273 99.8162 50.349C99.719 50.6891 101.796 50.9441 103.253 51.0048C103.253 51.0048 100.569 54.648 100.654 57.7204C100.739 60.7929 105.657 75.4264 106.811 75.5721C108.317 75.7664 111.147 70.1802 111.669 68.6379Z" fill="#263238"/>
<path d="M103.787 50.6284C103.787 50.6284 103.909 50.6284 103.86 50.7013C102.458 51.8574 101.403 53.3789 100.812 55.0974C100.241 57.1801 100.241 59.3781 100.812 61.4609C101.747 65.5048 103.763 69.1723 105.512 72.8884C105.512 72.9977 105.378 73.0948 105.33 72.9855C103.006 69.1691 101.29 65.0149 100.241 60.6715C99.5369 56.9797 100.363 52.7172 103.787 50.6284Z" fill="#263238"/>
<path d="M112.361 55.0245C114.092 54.7933 115.852 54.8922 117.546 55.3159C119.115 55.8503 120.612 56.5763 122.003 57.4776C125.19 59.3901 128.853 60.3626 132.569 60.2828V60.3557C129.162 60.6736 125.739 59.9719 122.732 58.3398C121.241 57.4366 119.695 56.6255 118.105 55.911C116.236 55.3953 114.297 55.1861 112.361 55.2916C112.338 55.2774 112.32 55.2577 112.307 55.2343C112.294 55.211 112.287 55.1847 112.287 55.158C112.287 55.1314 112.294 55.1051 112.307 55.0818C112.32 55.0584 112.338 55.0387 112.361 55.0245Z" fill="#263238"/>
<path d="M113.94 45.188C116.241 44.038 118.695 43.2202 121.226 42.7592C123.651 42.2296 126.149 42.1228 128.61 42.4434C132.836 43.0992 136.758 45.7587 137.778 50.0941C138.341 52.3153 138.055 54.6666 136.977 56.6883C136.97 56.7027 136.96 56.7155 136.948 56.726C136.935 56.7365 136.921 56.7445 136.906 56.7496C136.891 56.7547 136.875 56.7567 136.859 56.7556C136.843 56.7544 136.827 56.7501 136.813 56.743C136.798 56.7358 136.786 56.7259 136.775 56.7137C136.765 56.7016 136.757 56.6875 136.752 56.6723C136.746 56.6571 136.744 56.641 136.746 56.625C136.747 56.609 136.751 56.5934 136.758 56.579C137.643 54.7195 137.902 52.6231 137.494 50.6043C137.087 48.5855 136.036 46.7532 134.499 45.3823C131.002 42.407 126.132 42.2127 121.809 42.9535C119.107 43.4499 116.465 44.2315 113.927 45.2851L113.94 45.188Z" fill="#263238"/>
<path d="M109.896 74.0175C109.896 74.0175 105.439 67.5934 102.524 69.1599C99.6097 70.7265 102.937 80.0895 106.35 81.3039C106.776 81.4992 107.237 81.6062 107.705 81.6186C108.173 81.631 108.639 81.5485 109.075 81.376C109.511 81.2036 109.907 80.9447 110.24 80.6151C110.573 80.2855 110.836 79.8919 111.013 79.458L109.896 74.0175Z" fill="#EB9481"/>
<path d="M103.544 71.8196C103.544 71.8196 103.544 71.8924 103.544 71.9167C105.973 72.8883 107.188 75.1227 108.062 77.4301C107.922 77.1899 107.732 76.9827 107.505 76.8226C107.278 76.6626 107.019 76.5535 106.746 76.5027C106.472 76.452 106.191 76.4608 105.922 76.5287C105.652 76.5965 105.401 76.7217 105.184 76.8958C105.184 76.8958 105.184 77.0294 105.257 77.0172C105.677 76.8858 106.128 76.8876 106.548 77.0223C106.968 77.1571 107.335 77.4183 107.601 77.7701C108.045 78.3649 108.42 79.0087 108.718 79.6889C108.839 79.8953 109.228 79.786 109.143 79.5432C109.179 76.4222 106.823 72.1475 103.544 71.8196Z" fill="#263238"/>
<path d="M260.323 47.6772L312.19 122.581L382.055 138.029L399.457 148.776L344.263 221.263L346.315 312.343L260.323 282.251L174.32 312.343L156.917 301.608L176.372 221.263L121.177 148.776L208.432 122.581L242.921 36.9298L260.323 47.6772Z" fill="#FEF250"/>
<path opacity="0.1" d="M260.323 47.6772L312.19 122.581L382.055 138.029L399.457 148.776L344.263 221.263L346.315 312.343L260.323 282.251L174.32 312.343L156.917 301.608L176.372 221.263L121.177 148.776L208.432 122.581L242.921 36.9298L260.323 47.6772Z" fill="black"/>
<path d="M242.921 36.9298L294.8 111.834L382.055 138.029L326.86 210.516L328.913 301.608L242.921 271.503L156.917 301.608L158.97 210.516L103.775 138.029L191.042 111.834L242.921 36.9298Z" fill="#FEF250"/>
<g opacity="0.2">
<path d="M158.034 252.036L158.97 210.516L147.008 194.801L268.266 73.5436L294.788 111.834L297.435 112.635L158.034 252.036Z" fill="white"/>
<path d="M371.708 134.92L230.935 275.693L190.556 289.829L351.525 128.86L371.708 134.92Z" fill="white"/>
<path d="M149.23 124.379L117.522 156.087L106.18 141.198L111.742 135.636L149.23 124.379Z" fill="white"/>
<path d="M264.051 67.4598L142.551 188.96L141.434 187.491L262.995 65.9297L264.051 67.4598Z" fill="white"/>
<path d="M328.002 261.193L298.298 290.897L296.391 290.229L327.941 258.679L328.002 261.193Z" fill="white"/>
</g>
<path d="M92.9428 114.797C89.931 134.859 82.4382 176.331 90.8297 188.803C101.844 205.173 138.665 216.309 148.319 219.624C152.521 221.069 163.754 193.685 161.447 189.544C159.14 185.403 120.91 169.761 118.324 167.332C115.737 164.904 112.397 132.042 109.034 115.113C104.795 93.8247 95.493 97.8201 92.9428 114.797Z" fill="#EB9481"/>
<path d="M172.911 199.32C171.405 197.619 172.279 196.818 176.251 197.547C180.222 198.275 195.292 204.481 197.017 199.04C198.741 193.6 177.344 185.135 170.652 184.468C163.961 183.8 152.885 184.99 152.885 184.99C156.723 187.443 165.394 194.353 172.911 199.32Z" fill="#EB9481"/>
<path d="M137.815 215.034C148.866 221.628 162.236 230.517 176.761 230.602C178.374 230.649 179.956 230.153 181.254 229.194C187.763 229.352 189.755 226.328 189.755 226.328C195.827 224.615 197.515 221.227 197.515 221.227C197.515 221.227 205.153 221.324 206.015 216.722C206.963 211.548 196.033 212.423 189.742 209.229C175.303 201.943 156.832 187.491 152.885 184.941L137.815 215.034Z" fill="#EB9481"/>
<path d="M169.231 212.265C173.43 214.449 177.771 216.347 182.225 217.948C187.211 219.392 192.297 220.463 197.442 221.154C197.474 221.154 197.505 221.167 197.528 221.19C197.55 221.213 197.563 221.243 197.563 221.276C197.563 221.308 197.55 221.339 197.528 221.362C197.505 221.384 197.474 221.397 197.442 221.397C187.371 221.065 177.587 217.969 169.158 212.447C168.94 212.265 169.037 212.095 169.231 212.265Z" fill="#263238"/>
<path d="M163.548 220.268C167.835 222.053 175.388 225.126 189.803 226.17C189.803 226.17 189.864 226.255 189.803 226.255C180.657 226.81 171.536 224.809 163.463 220.475C163.208 220.341 163.269 220.147 163.548 220.268Z" fill="#263238"/>
<path d="M160.536 224.664C167.944 227.408 172.959 228.21 181.181 229.157V229.254C171.721 229.145 168.296 228.04 160.415 224.907C160.172 224.797 160.293 224.555 160.536 224.664Z" fill="#263238"/>
<path d="M114.583 138.187L85.1706 147.975C85.1706 147.975 90.6475 114.324 95.0558 104.888C100.011 94.2618 104.358 99.1194 108.256 109.551C112.155 119.983 114.583 138.187 114.583 138.187Z" fill="#CEC7FE"/>
<path d="M107.406 133.038C107.042 133.028 106.686 132.923 106.374 132.734C106.077 132.561 105.832 132.313 105.664 132.014C105.495 131.715 105.409 131.377 105.415 131.034C105.404 130.581 105.261 130.141 105.005 129.768C104.748 129.395 104.388 129.105 103.969 128.933C103.583 128.786 103.165 128.74 102.755 128.799C102.354 128.799 101.966 128.884 101.541 128.957C101.941 129.03 102.33 129.067 102.755 129.115C103.124 129.117 103.486 129.209 103.812 129.382C104.113 129.545 104.366 129.785 104.546 130.077C104.725 130.369 104.823 130.703 104.832 131.046C104.828 131.495 104.955 131.936 105.196 132.316C105.437 132.695 105.783 132.996 106.192 133.183C106.575 133.345 106.995 133.4 107.406 133.341C107.807 133.341 108.208 133.256 108.621 133.183C108.208 133.123 107.807 133.086 107.406 133.038ZM106.908 106.236C106.466 106.252 106.037 106.388 105.667 106.63C105.297 106.871 104.999 107.21 104.807 107.608C104.652 107.993 104.598 108.411 104.65 108.823C104.65 109.223 104.735 109.612 104.807 110.037C104.88 109.636 104.905 109.248 104.965 108.823C104.975 108.46 105.075 108.105 105.257 107.79C105.43 107.492 105.681 107.246 105.982 107.077C106.283 106.908 106.624 106.823 106.969 106.831C107.037 106.843 107.107 106.843 107.175 106.831C107.103 106.612 106.993 106.442 106.908 106.236Z" fill="white"/>
<path d="M111.778 133.244C107.868 133.973 96.4402 137.847 94.5457 138.466C93.5378 138.794 89.6152 140.275 88.6194 140.591C88.4858 140.591 88.6194 140.822 88.7044 140.785C90.611 140.178 92.5784 139.765 94.4971 139.17C96.4159 138.575 108.183 135.066 111.827 133.39C111.96 133.329 111.863 133.22 111.778 133.244Z" fill="#263238"/>
<path d="M91.1697 118.052C91.1697 117.906 90.9875 117.882 90.9511 118.052C90.1617 120.845 89.4452 123.65 88.7773 126.48C88.7797 124.96 88.922 123.444 89.2024 121.95C89.2024 121.877 89.1173 121.865 89.0931 121.95C88.7109 123.667 88.5517 125.426 88.6194 127.184C88.158 129.151 87.7086 131.119 87.2836 133.098C86.2149 138.126 85.0855 143.153 84.2962 148.23C84.2883 148.292 84.2964 148.355 84.3198 148.412C84.3433 148.47 84.3812 148.521 84.43 148.56C84.4787 148.599 84.5367 148.625 84.5984 148.635C84.66 148.645 84.7232 148.64 84.7819 148.618C85.7899 148.242 86.7857 147.841 87.7694 147.404C87.8665 147.404 87.8422 147.173 87.7694 147.197C86.895 147.367 86.0328 147.598 85.1706 147.817C86.385 142.959 87.2472 138.102 88.2794 133.244C89.3117 128.386 90.3075 123.116 91.1697 118.052Z" fill="#263238"/>
<path d="M112.859 125.023C112.749 123.383 112.628 121.756 112.47 120.165C112.47 121.38 112.567 122.594 112.64 123.808C112.118 121.465 111.559 119.133 110.891 116.838C111.389 120.481 112.106 124.015 112.652 127.609C113.199 131.204 113.867 134.641 114.462 138.15C113.83 138.478 113.187 138.782 112.543 139.085C112.525 139.1 112.512 139.12 112.506 139.142C112.5 139.164 112.501 139.187 112.509 139.209C112.517 139.23 112.532 139.249 112.551 139.262C112.57 139.274 112.593 139.281 112.616 139.28C113.369 139.073 114.122 138.867 114.887 138.685C114.976 138.673 115.057 138.627 115.113 138.557C115.17 138.487 115.197 138.398 115.19 138.308C114.51 133.827 113.782 129.407 112.859 125.023Z" fill="#263238"/>
<path d="M403.477 285.529V312.841H408.869V322.155L418.183 312.841H497.034V285.529H403.477Z" fill="white"/>
<path d="M403.477 285.529C403.562 294.734 403.805 303.842 403.841 312.841L403.477 312.477H408.869H409.257V312.877V322.192L408.492 321.864L417.746 312.513L417.904 312.367H418.122L496.973 312.282L496.378 312.877V285.565L496.925 286.112C469.977 286.112 430.74 285.784 403.416 285.565L403.477 285.529ZM403.477 285.529C431.116 285.383 469.759 284.958 496.985 284.983H497.532V285.529V312.841V313.436H496.937L418.086 313.363L418.45 313.205L409.087 322.471L408.31 323.236V322.155V312.841L408.711 313.242H403.319H402.955V312.877C402.955 303.672 403.234 294.564 403.307 285.565L403.477 285.529Z" fill="#263238"/>
<path d="M417.43 292.779L419.555 295.949L423.235 296.993L420.879 299.993L421.013 303.818L417.43 302.494L413.835 303.818L413.981 299.993L411.625 296.993L415.305 295.949L417.43 292.779Z" fill="#FEF250"/>
<path d="M433.849 292.779L435.974 295.949L439.642 296.993L437.286 299.993L437.431 303.818L433.849 302.494L430.254 303.818L430.4 299.993L428.032 296.993L431.711 295.949L433.849 292.779Z" fill="#FEF250"/>
<path d="M450.255 292.779L452.38 295.949L456.06 296.993L453.704 299.993L453.838 303.818L450.255 302.494L446.673 303.818L446.818 299.993L444.45 296.993L448.13 295.949L450.255 292.779Z" fill="#FEF250"/>
<path d="M466.674 292.779L468.799 295.949L472.479 296.993L470.111 299.993L470.257 303.818L466.674 302.494L463.079 303.818L463.225 299.993L460.869 296.993L464.537 295.949L466.674 292.779Z" fill="#FEF250"/>
<path d="M483.081 302.494V292.779L480.955 295.949L477.276 296.993L479.644 299.993L479.498 303.818L483.081 302.494Z" fill="#FEF250"/>
<path d="M483.081 292.779L485.315 295.876C486.165 295.997 487.817 296.532 488.958 296.799L489.238 296.872L489.055 297.115L486.748 300.163V299.993L486.918 303.806V304.219L486.53 304.073L482.886 302.786H483.093L479.45 304.073L479.049 304.219V303.806L479.207 299.993L479.267 300.163L476.948 297.115L476.766 296.872L477.057 296.799C478.174 296.532 479.838 295.985 480.7 295.876L482.923 292.779H483.081ZM483.081 292.779L481.053 296.058C479.838 296.532 478.563 296.835 477.337 297.272L477.434 296.957L479.862 299.92C479.879 299.945 479.887 299.975 479.887 300.005C479.887 300.035 479.879 300.064 479.862 300.09L479.741 303.915L479.365 303.636L482.947 302.3C483.056 302.3 483.044 302.3 483.153 302.3L486.736 303.636L486.359 303.915L486.238 300.09C486.238 299.993 486.238 299.993 486.238 299.92L488.667 296.957L488.776 297.272C487.562 296.872 486.25 296.568 485.06 296.058L483.02 292.828L483.081 292.779Z" fill="#263238"/>
<path d="M142.357 0.437256V46.9245H147.736V56.2389L157.051 46.9245H251.98V0.437256H142.357Z" fill="white"/>
<path d="M142.32 0.437184C142.478 14.1478 142.587 33.4567 142.66 46.9244L142.32 46.5844H148.064V46.9365V56.251L147.384 55.9717L156.662 46.6329L156.796 46.4993L228.178 46.3415H251.908L251.361 46.8758L251.47 0.388607L251.908 0.837938C224.584 0.837938 169.608 0.558623 142.284 0.388607L142.32 0.437184ZM142.32 0.437184C169.632 0.279313 224.632 0.024288 251.944 0H252.381V0.437184L252.49 46.9244V47.4709H251.944C225.47 47.6045 183.792 47.4709 157.014 47.3737L157.33 47.2401L147.979 56.5181L147.311 57.1861V56.2388V46.9244L147.664 47.2887H142.284H141.944C141.956 33.6024 142.32 14.3178 142.32 0.437184Z" fill="#263238"/>
<path d="M180.039 23.7417C180.039 26.3597 179.263 28.919 177.809 31.0958C176.354 33.2726 174.287 34.9692 171.868 35.9711C169.449 36.9729 166.788 37.2351 164.22 36.7243C161.652 36.2136 159.294 34.9529 157.443 33.1016C155.591 31.2504 154.331 28.8918 153.82 26.3241C153.309 23.7564 153.571 21.0949 154.573 18.6761C155.575 16.2574 157.272 14.1901 159.448 12.7356C161.625 11.2811 164.184 10.5048 166.802 10.5048C170.313 10.5048 173.68 11.8994 176.162 14.3818C178.645 16.8642 180.039 20.2311 180.039 23.7417Z" fill="#EBEBEB"/>
<path d="M166.972 26.0006C169.273 26.0006 171.138 24.1357 171.138 21.8352C171.138 19.5347 169.273 17.6698 166.972 17.6698C164.672 17.6698 162.807 19.5347 162.807 21.8352C162.807 24.1357 164.672 26.0006 166.972 26.0006Z" fill="white"/>
<path d="M159.783 33.3232V35.0355C161.001 35.7962 162.334 36.354 163.73 36.6871C165.493 37.1244 167.325 37.2035 169.119 36.9198C170.913 36.6361 172.632 35.9954 174.174 35.0355V33.3232C174.214 32.3535 174.057 31.3856 173.714 30.4779C173.37 29.5702 172.846 28.7413 172.174 28.041C171.502 27.3408 170.695 26.7836 169.803 26.403C168.91 26.0224 167.949 25.8262 166.979 25.8262C166.008 25.8262 165.047 26.0224 164.155 26.403C163.262 26.7836 162.455 27.3408 161.783 28.041C161.111 28.7413 160.587 29.5702 160.244 30.4779C159.9 31.3856 159.743 32.3535 159.783 33.3232Z" fill="white"/>
<path d="M239.059 15.7021H189.414V16.4551H239.059V15.7021Z" fill="#EBEBEB"/>
<path d="M239.059 20.8513H189.414V21.6042H239.059V20.8513Z" fill="#EBEBEB"/>
<path d="M239.059 26.0004H189.414V26.7533H239.059V26.0004Z" fill="#EBEBEB"/>
<path d="M214.018 31.1497H189.414V31.9026H214.018V31.1497Z" fill="#EBEBEB"/>
</svg>
